<svg xmlns="http://www.w3.org/2000/svg" xmlns:xlink="http://www.w3.org/1999/xlink" width="843" height="388" viewBox="0 0 843 388">
  <defs>
    <linearGradient id="linear-gradient" y1="0.5" x2="1" y2="0.5" gradientUnits="objectBoundingBox">
      <stop offset="0" stop-color="#b5ce87"/>
      <stop offset="1" stop-color="#0f314d"/>
    </linearGradient>
  </defs>
  <g id="Grupo_7" data-name="Grupo 7" transform="translate(-539 -701)">
    <g id="Grupo_2" data-name="Grupo 2" transform="translate(564.563 614)">
      <path id="Trazado_2" data-name="Trazado 2" d="M341.876,257.215a56.656,56.656,0,0,1-74.47,53.43.331.331,0,0,1,0-.628A56.689,56.689,0,0,0,274.955,206.2c.168.241.334.484.49.742a22.426,22.426,0,0,1,2.765,8.644,65.1,65.1,0,0,1,.38,11.717q-.319,6.492-1,13.44t-1.3,13.721q-.624,6.775-.676,12.747a42.976,42.976,0,0,0,1.065,10.569,13.553,13.553,0,0,0,3.814,7.043,1.474,1.474,0,0,1,.559,1.238c-.045.44-.353.7-.925.768a2.872,2.872,0,0,1-1.086-.191q-4.109-1.452-5.569-7.562a61.357,61.357,0,0,1-1.439-14.362q.022-8.254.819-17.666t1.276-17.558a95.017,95.017,0,0,0-.042-13.882,14.457,14.457,0,0,0-.834-4.121c-.133-.319-.442-1.262-.569-1.58-.284-.711-.25-.825-.584-1.622s-.781-1.638-1.075-2.349a4.827,4.827,0,0,0-.519-1.053,4.93,4.93,0,0,0-.828-.921,4.708,4.708,0,0,0-1.309-.7.369.369,0,0,1,.01-.7,56.657,56.657,0,0,1,73.5,54.652Zm-240.007,46.9a8.893,8.893,0,0,0,6.574-2.9,25.881,25.881,0,0,0,4.931-7.671,77.551,77.551,0,0,0,3.759-10.723q1.642-5.95,2.9-12.056,1.25-5.637,2.347-11.037t2.035-9.628q.942-4.227,1.8-6.89t1.8-2.818q1.094-.151,2.27,4.148t2.661,10.961q1.488,6.657,3.6,14.481a101.182,101.182,0,0,0,5.089,14.56,39.983,39.983,0,0,0,7.124,11.194,12.777,12.777,0,0,0,9.628,4.462,16.451,16.451,0,0,0,5.165-.94,8.224,8.224,0,0,0,4.932-4.931,22.546,22.546,0,0,0,1.175-8.61,68.04,68.04,0,0,0-1.409-11.272q-1.255-6.183-2.9-12.76t-3.211-12.994q-1.564-6.419-2.5-12.134a44.642,44.642,0,0,1-.626-10.254,13.105,13.105,0,0,1,2.349-7.2,1.449,1.449,0,0,0,.312-1.252.839.839,0,0,0-.94-.626,2.375,2.375,0,0,0-.938.312q-3.447,1.878-3.837,7.907a63.7,63.7,0,0,0,.862,13.933q1.251,7.906,3.365,16.83t3.759,16.674a99.806,99.806,0,0,1,2.035,13.307q.387,5.561-1.957,6.81a5.046,5.046,0,0,1-1.252.314q-2.349,0-4.384-4.541a87.75,87.75,0,0,1-3.992-11.273q-1.962-6.728-3.994-14.716a132.877,132.877,0,0,0-4.617-14.717,54.038,54.038,0,0,0-5.715-11.271q-3.133-4.539-7.2-4.541a2.576,2.576,0,0,0-.626.079,2.5,2.5,0,0,1-.626.078,8.782,8.782,0,0,0-4.853,2.271,15.479,15.479,0,0,0-3.366,5.948,96.325,96.325,0,0,0-3.054,11.194q-1.565,7.044-3.913,18-1.255,6.105-2.739,11.586t-3.054,9.707a37.657,37.657,0,0,1-3.13,6.731q-1.569,2.508-2.975,2.506h-.315q-1.722-.471-.859-6.419t2.426-14.952q1.562-9,3.287-19.57a140.533,140.533,0,0,0,1.88-20.353,56.931,56.931,0,0,0-2.114-17.3q-2.271-7.515-8.375-10.332a2.2,2.2,0,0,0-.941-.158c-.836,0-1.33.315-1.487.941a1.724,1.724,0,0,0,.547,1.72q.627.63-.076,4.775t-2.114,10.413q-1.41,6.264-3.053,14.089t-2.9,15.971q-1.256,8.141-1.8,15.89a64.218,64.218,0,0,0,.391,14.012,24.891,24.891,0,0,0,3.68,10.332,10.694,10.694,0,0,0,8.061,4.7Zm92.214-3.365q10.175-.236,17.378-.391,1.25,0,1.174-1.487c-.054-.992-.5-1.488-1.331-1.488q-1.878.157-4.62.157t-6.026.155q.312-3.131.94-9.314t1.33-13.933q.7-7.752,1.488-16.283T205.9,241.88q.705-7.748,1.174-13.933t.626-9.159q2.5-.153,4.853-.155H217.1c.833,0,1.226-.5,1.174-1.488s-.5-1.487-1.331-1.487q-3.445,0-7.749.078t-8.924.234q-4.62.157-9.316.392t-8.766.548a1.019,1.019,0,0,0-.94.547,2.319,2.319,0,0,0-.314,1.176,1.655,1.655,0,0,0,.392,1.1,1.255,1.255,0,0,0,1.017.469l10.489-.626q-.625,3.288-1.487,9.785t-1.8,14.4q-.939,7.907-1.878,16.6t-1.723,16.283q-.784,7.593-1.173,13.307t-.393,7.9q-3.134,0-6.027.079t-5.4.078c-.836,0-1.251.5-1.251,1.488s.468,1.487,1.409,1.487Q183.9,300.982,194.083,300.747Zm36.63-71.548q-1.566,8.847-2.661,18t-1.721,18q-.63,8.848-.471,16.2a75.444,75.444,0,0,0,1.175,12.6q1.017,5.247,3.052,7.122a6.717,6.717,0,0,0,3.444,1.723,24,24,0,0,0,5.01.469,51.221,51.221,0,0,0,8.533-.783q4.617-.78,9.08-1.956a77.255,77.255,0,0,0,8.3-2.661,57.766,57.766,0,0,0,6.184-2.74,1.684,1.684,0,0,0,.7-1.878c-.155-.835-.6-1.254-1.33-1.254a.923.923,0,0,0-.626.157q-5.012,2.195-10.411,4.227a26.652,26.652,0,0,1-9,2.035,4.7,4.7,0,0,1-3.444-1.1q-.939-1.094-1.174-6.5t.076-13.307q.313-7.9.94-17.378t1.41-18.4q.78-8.924,1.409-16.516t.94-11.663c.1-.73-.783-1.277-2.664-1.645a31.221,31.221,0,0,0-5.948-.547,24.207,24.207,0,0,0-5.01.468q-2.194.473-2.5,1.252Q232.275,220.357,230.713,229.2Zm125.755,3.758q-1.254,11.038-2.349,22.935t-1.8,23.485q-.707,11.587-1.019,20.979a3.113,3.113,0,0,0,.783,2.035,6.678,6.678,0,0,0,2.192,1.643,11.6,11.6,0,0,0,3.13,1.018,19.207,19.207,0,0,0,3.447.312,10.767,10.767,0,0,0,4.3-.781,3.3,3.3,0,0,0,2.114-2.506q1.41-10.174,3.053-23.875t2.9-28.572a23.073,23.073,0,0,1,4.384-1.957,13.79,13.79,0,0,1,4.228-.7,9.04,9.04,0,0,1,4.539,1.252q1.41.939,2.192,5.246t1.409,10.332q.623,6.028,1.488,12.839a90.529,90.529,0,0,0,2.5,12.758,37.678,37.678,0,0,0,4.385,10.256,11.045,11.045,0,0,0,7.124,5.243h.312a1.463,1.463,0,0,0,1.566-1.173q.312-1.174-1.1-1.645c-.525-.1-.783-1.355-.783-3.756s.024-5.376.078-8.925,0-7.488-.157-11.82a93.787,93.787,0,0,0-1.331-12.76,47.279,47.279,0,0,0-3.444-11.428,17.517,17.517,0,0,0-6.576-7.828,37.332,37.332,0,0,0,6.655-8.767,35.427,35.427,0,0,0,3.913-10.1,16.389,16.389,0,0,0-.314-8.767q-1.329-3.835-6.341-4.777a7.224,7.224,0,0,0-1.33-.154h-1.174a16.961,16.961,0,0,0-11.977,5.165,41.762,41.762,0,0,0-9.159,13.933q.471-8.765.471-16.909a3.826,3.826,0,0,0-2.427-3.755,13,13,0,0,0-5.4-1.1,15.628,15.628,0,0,0-5.246.862q-2.43.861-2.739,2.428Q357.717,221.921,356.468,232.957ZM396.391,220.9a27.327,27.327,0,0,1-3.994,8.221,58.457,58.457,0,0,1-7.9,9.236,41.411,41.411,0,0,1-11.116,7.671,55.377,55.377,0,0,1,4.07-13.386,45.389,45.389,0,0,1,5.715-9.471,25.8,25.8,0,0,1,6.027-5.636,9.99,9.99,0,0,1,5.01-1.878,2.818,2.818,0,0,1,1.721.469Q397.33,217.224,396.391,220.9ZM428.8,303.955a37.6,37.6,0,0,0,8.455-1.1,88.177,88.177,0,0,0,9.551-2.818,94.418,94.418,0,0,0,9.55-3.991,83.371,83.371,0,0,0,8.611-4.775,1.49,1.49,0,0,0,.781-1.959,1.715,1.715,0,0,0-1.721-1.173,2.383,2.383,0,0,0-.94.314q-1.724,1.1-4.539,2.582t-6.029,2.9a53.473,53.473,0,0,1-6.417,2.347,20.19,20.19,0,0,1-5.56.94,4.662,4.662,0,0,1-2.816-.626q-.942-.622-1.409-4.149a89.091,89.091,0,0,1-.628-9q-.156-5.479.078-12.292t.7-14.012q6.105-1.091,12.134-1.8t12.134-1.488q1.562-.312,1.485-1.644t-1.642-1.643q-5.953.625-11.9,1.331t-11.9,1.8q.468-5.947,1.173-11.741t1.488-10.647q.781-4.85,1.723-8.454a22.6,22.6,0,0,1,2.035-5.479c.415-.833,1.461-1.252,3.13-1.252a19,19,0,0,1,3.915.469q2.188.471,4.54,1.175t4.7,1.331q2.349.625,4.227.94h.471a1.69,1.69,0,0,0,1.878-1.333q.314-1.326-1.409-1.8-2.194-.624-5.322-1.488t-6.812-1.721q-3.68-.858-7.436-1.487a43.78,43.78,0,0,0-7.2-.626,22.578,22.578,0,0,0-6.184.78,9.406,9.406,0,0,0-4.461,2.664q-1.725,1.878-3.6,8.845t-3.444,16.282q-1.567,9.316-2.584,19.8a186.91,186.91,0,0,0-.939,19.649,73.826,73.826,0,0,0,1.565,15.657q1.486,6.5,4.776,7.749A15.645,15.645,0,0,0,428.8,303.955Zm53.7-9.471q.471-4.3,1.018-10.332t1.252-13.229q.7-7.2,1.8-14.4,6.887-1.248,13.541-1.956t13.7-1.017q-.629,9.081-1.018,18.316a76.37,76.37,0,0,0,.94,16.675,26.536,26.536,0,0,0,5.086,12.132q3.759,4.7,11.43,4.7a1.294,1.294,0,0,0,1.487-1.33q.078-1.33-1.8-1.174-.787,0-.236-4.384t1.645-11.427q1.091-7.049,2.111-15.971a157.454,157.454,0,0,0,1.019-17.847h2.661c.94,0,1.409-.52,1.409-1.566a1.68,1.68,0,0,0-1.252-1.878h-2.818a82.98,82.98,0,0,0-1.331-13.229,41.479,41.479,0,0,0-3.679-11.272,23.716,23.716,0,0,0-6.653-8.141,19.684,19.684,0,0,0-10.256-3.836,7.018,7.018,0,0,0-1.331-.158h-1.33a21.988,21.988,0,0,0-12.211,3.445,33.778,33.778,0,0,0-9.316,9.159,58.12,58.12,0,0,0-6.731,13.074,130.938,130.938,0,0,0-4.619,15.185q-1.879,7.831-2.974,15.579t-1.723,14.088q-.626,6.34-.861,10.725a38.984,38.984,0,0,1-.548,5.636,2.029,2.029,0,0,0,1.1,2.428,7.654,7.654,0,0,0,3.444.7,10.027,10.027,0,0,0,3.68-.7,3.632,3.632,0,0,0,2.271-1.959A29.325,29.325,0,0,0,482.5,294.484Zm29.826-73.816a22.342,22.342,0,0,1,2.113,7.2,56.08,56.08,0,0,1,.391,10.1q-.236,5.718-.705,12.134-6.89.313-13.541.86a133.272,133.272,0,0,0-13.386,1.8q1.094-7.047,2.739-13.464a66.821,66.821,0,0,1,3.914-11.351,25.124,25.124,0,0,1,5.324-7.829,9.844,9.844,0,0,1,6.967-2.894,5.6,5.6,0,0,1,1.564.155A5.974,5.974,0,0,1,512.323,220.668Zm40.154,2.426q-.939,7.28-1.957,16.673t-1.956,19.8q-.939,10.413-1.645,19.334T545.9,294.171a70.091,70.091,0,0,0-.155,7.594c.207.837,1.252,1.486,3.13,1.957a25.857,25.857,0,0,0,6.263.7,23.887,23.887,0,0,0,5.246-.547q2.423-.552,3.051-1.8,1.253-2.971,1.959-10.1t1.409-16.047q.7-8.925,1.564-18.632a144.3,144.3,0,0,1,2.584-17.689,47.443,47.443,0,0,1,4.618-13.153q2.9-5.166,7.436-5.165a5.546,5.546,0,0,1,1.566.157q2.972.625,4.384,5.4a53.455,53.455,0,0,1,1.8,11.977,147.691,147.691,0,0,1-.079,15.89q-.468,8.689-1.1,17.142T588.408,287.6q-.552,7.279-.55,11.663,0,.63,1.1,1.252a12.337,12.337,0,0,0,2.74,1.1,30.792,30.792,0,0,0,3.6.783,23.046,23.046,0,0,0,3.678.312,12.22,12.22,0,0,0,3.367-.39c.885-.261,1.331-.651,1.331-1.176q2.19-19.254,4.775-34.6A267.134,267.134,0,0,1,614,240.393q2.973-10.8,6.341-16.516t6.81-5.715h.783q2.5.471,3.208,4.463a49.944,49.944,0,0,1,.471,10.253q-.234,6.264-.939,14.012t-1.1,15.736a155.987,155.987,0,0,0,0,15.654A52,52,0,0,0,631.93,291.9a21.623,21.623,0,0,0,5.95,9.549q3.992,3.6,10.88,3.6h1.566q1.41-.158,1.409-1.409c0-.836-.469-1.3-1.409-1.409q-2.976-.312-4.07-3.991a36.187,36.187,0,0,1-1.174-9.63q-.084-5.947.469-13.463t1.095-15.5q.549-7.986.783-15.735a74.912,74.912,0,0,0-.783-14.088,30.828,30.828,0,0,0-3.523-10.647,10.928,10.928,0,0,0-7.2-5.4,18.209,18.209,0,0,0-4.072-.468,14.521,14.521,0,0,0-9.392,3.287,29.294,29.294,0,0,0-7.124,8.847,66.927,66.927,0,0,0-5.244,12.76,152.427,152.427,0,0,0-3.758,15.185,92.31,92.31,0,0,0-1.566-14.012,42.253,42.253,0,0,0-3.6-10.958,20.288,20.288,0,0,0-5.949-7.281,17.054,17.054,0,0,0-8.768-3.132,16.726,16.726,0,0,0-7.2,1.409,14.569,14.569,0,0,0-5.01,3.837,21.441,21.441,0,0,0-3.366,5.636,67.257,67.257,0,0,0-2.428,6.966V214.092q0-1.411-2.5-2.114a19.61,19.61,0,0,0-5.324-.705,17.586,17.586,0,0,0-4.227.469q-1.878.473-2.19,1.567A68.694,68.694,0,0,0,552.477,223.094Zm143.486.468a11.281,11.281,0,0,0-2.268-5.322,10.491,10.491,0,0,0-4.228-3.13,14.019,14.019,0,0,0-5.324-1.018,17.033,17.033,0,0,0-5.557.94,17.825,17.825,0,0,0-5.087,2.739,16.943,16.943,0,0,0-3.994,4.382,13.085,13.085,0,0,0-1.956,5.872,28.747,28.747,0,0,0,2.113,13.543,141.839,141.839,0,0,0,6.262,13.463q3.523,6.657,6.263,13.152a25.913,25.913,0,0,1,2.113,12.758q-.939,7.674-4.539,11.116a11.147,11.147,0,0,1-7.828,3.446,12.045,12.045,0,0,1-6.184-1.8,14.355,14.355,0,0,1-5.01-5.01,17.682,17.682,0,0,1-2.349-7.828,25.726,25.726,0,0,1,1.487-10.254,1.836,1.836,0,0,0-.078-1.878,1.6,1.6,0,0,0-1.331-.783,1.522,1.522,0,0,0-1.409,1.1q-2.663,7.986-1.642,14.012a20.859,20.859,0,0,0,4.3,10.02A20.472,20.472,0,0,0,668.1,299.1a27.729,27.729,0,0,0,10.411,2.035,28.5,28.5,0,0,0,8.611-1.33,24.341,24.341,0,0,0,7.593-3.913,22.983,22.983,0,0,0,5.715-6.5,21.332,21.332,0,0,0,2.818-9.236,31.025,31.025,0,0,0-1.016-11.039,46.792,46.792,0,0,0-4.151-10.018,95.632,95.632,0,0,0-5.87-9.238q-3.21-4.463-6.029-8.611a61.089,61.089,0,0,1-4.617-7.907,16.926,16.926,0,0,1-1.8-7.357,7.37,7.37,0,0,1,2.426-5.872,7.663,7.663,0,0,1,5.088-2.113,5.873,5.873,0,0,1,4.854,2.9q2.032,2.9.469,9.63a1.339,1.339,0,0,0,.235,1.486,1.577,1.577,0,0,0,2.74-.705A21.219,21.219,0,0,0,695.963,223.562Z" fill="url(#linear-gradient)"/>
      <text id="DREAM_INTO_THE_NATURE" data-name="DREAM INTO THE NATURE" transform="translate(89.064 331.105)" fill="#b2cc86" font-size="25.388" font-family="EuphemiaUCAS, Euphemia UCAS" letter-spacing="0.246em"><tspan x="84.439" y="28">DREAM INTO THE NATURE</tspan></text>
    </g>
    <path id="Trazado_5" data-name="Trazado 5" d="M346.172,1148.294a55.953,55.953,0,0,1-73.548,52.768.327.327,0,0,1,0-.62,55.987,55.987,0,0,0,7.453-102.535c.166.238.33.478.484.733a22.139,22.139,0,0,1,2.731,8.537,64.35,64.35,0,0,1,.376,11.572q-.318,6.411-.987,13.273t-1.286,13.551q-.617,6.692-.668,12.589a42.446,42.446,0,0,0,1.052,10.438,13.376,13.376,0,0,0,3.767,6.956,1.456,1.456,0,0,1,.552,1.223c-.045.434-.349.688-.914.758a2.845,2.845,0,0,1-1.072-.188q-4.058-1.434-5.5-7.469a60.64,60.64,0,0,1-1.42-14.184q.021-8.153.808-17.447t1.26-17.341a93.81,93.81,0,0,0-.041-13.71,14.288,14.288,0,0,0-.823-4.069c-.132-.315-.437-1.247-.563-1.561-.281-.7-.247-.815-.576-1.6s-.772-1.618-1.062-2.319a4.78,4.78,0,0,0-.512-1.041,4.894,4.894,0,0,0-.819-.909,4.625,4.625,0,0,0-1.292-.688.364.364,0,0,1,.01-.69,55.956,55.956,0,0,1,72.589,53.975Z" transform="translate(650.598 -115.788)" opacity="0.299" fill="url(#linear-gradient)"/>
    <path id="Trazado_12" data-name="Trazado 12" d="M346.172,1148.294a55.953,55.953,0,0,1-73.548,52.768.327.327,0,0,1,0-.62,55.987,55.987,0,0,0,7.453-102.535c.166.238.33.478.484.733a22.139,22.139,0,0,1,2.731,8.537,64.35,64.35,0,0,1,.376,11.572q-.318,6.411-.987,13.273t-1.286,13.551q-.617,6.692-.668,12.589a42.446,42.446,0,0,0,1.052,10.438,13.376,13.376,0,0,0,3.767,6.956,1.456,1.456,0,0,1,.552,1.223c-.045.434-.349.688-.914.758a2.845,2.845,0,0,1-1.072-.188q-4.058-1.434-5.5-7.469a60.64,60.64,0,0,1-1.42-14.184q.021-8.153.808-17.447t1.26-17.341a93.81,93.81,0,0,0-.041-13.71,14.288,14.288,0,0,0-.823-4.069c-.132-.315-.437-1.247-.563-1.561-.281-.7-.247-.815-.576-1.6s-.772-1.618-1.062-2.319a4.78,4.78,0,0,0-.512-1.041,4.894,4.894,0,0,0-.819-.909,4.625,4.625,0,0,0-1.292-.688.364.364,0,0,1,.01-.69,55.956,55.956,0,0,1,72.589,53.975Z" transform="translate(176.042 1204.344) rotate(-90)" opacity="0.299" fill="url(#linear-gradient)"/>
    <path id="Trazado_13" data-name="Trazado 13" d="M346.172,1148.294a55.953,55.953,0,0,1-73.548,52.768.327.327,0,0,1,0-.62,55.987,55.987,0,0,0,7.453-102.535c.166.238.33.478.484.733a22.139,22.139,0,0,1,2.731,8.537,64.35,64.35,0,0,1,.376,11.572q-.318,6.411-.987,13.273t-1.286,13.551q-.617,6.692-.668,12.589a42.446,42.446,0,0,0,1.052,10.438,13.376,13.376,0,0,0,3.767,6.956,1.456,1.456,0,0,1,.552,1.223c-.045.434-.349.688-.914.758a2.845,2.845,0,0,1-1.072-.188q-4.058-1.434-5.5-7.469a60.64,60.64,0,0,1-1.42-14.184q.021-8.153.808-17.447t1.26-17.341a93.81,93.81,0,0,0-.041-13.71,14.288,14.288,0,0,0-.823-4.069c-.132-.315-.437-1.247-.563-1.561-.281-.7-.247-.815-.576-1.6s-.772-1.618-1.062-2.319a4.78,4.78,0,0,0-.512-1.041,4.894,4.894,0,0,0-.819-.909,4.625,4.625,0,0,0-1.292-.688.364.364,0,0,1,.01-.69,55.956,55.956,0,0,1,72.589,53.975Z" transform="translate(650.598 -388.788)" opacity="0.299" fill="url(#linear-gradient)"/>
    <path id="Trazado_14" data-name="Trazado 14" d="M346.172,1148.294a55.953,55.953,0,0,1-73.548,52.768.327.327,0,0,1,0-.62,55.987,55.987,0,0,0,7.453-102.535c.166.238.33.478.484.733a22.139,22.139,0,0,1,2.731,8.537,64.35,64.35,0,0,1,.376,11.572q-.318,6.411-.987,13.273t-1.286,13.551q-.617,6.692-.668,12.589a42.446,42.446,0,0,0,1.052,10.438,13.376,13.376,0,0,0,3.767,6.956,1.456,1.456,0,0,1,.552,1.223c-.045.434-.349.688-.914.758a2.845,2.845,0,0,1-1.072-.188q-4.058-1.434-5.5-7.469a60.64,60.64,0,0,1-1.42-14.184q.021-8.153.808-17.447t1.26-17.341a93.81,93.81,0,0,0-.041-13.71,14.288,14.288,0,0,0-.823-4.069c-.132-.315-.437-1.247-.563-1.561-.281-.7-.247-.815-.576-1.6s-.772-1.618-1.062-2.319a4.78,4.78,0,0,0-.512-1.041,4.894,4.894,0,0,0-.819-.909,4.625,4.625,0,0,0-1.292-.688.364.364,0,0,1,.01-.69,55.956,55.956,0,0,1,72.589,53.975Z" transform="translate(-550.958 1204.344) rotate(-90)" opacity="0.299" fill="url(#linear-gradient)"/>
    <path id="Trazado_48" data-name="Trazado 48" d="M0,0H839" transform="translate(540.5 702.5)" fill="none" stroke="#ff4a4a" stroke-width="3" stroke-dasharray="6 5"/>
    <path id="Trazado_53" data-name="Trazado 53" d="M0,0H839" transform="translate(540.5 1087.5)" fill="none" stroke="#ff4a4a" stroke-width="3" stroke-dasharray="6 5"/>
    <path id="Trazado_52" data-name="Trazado 52" d="M0,0H839" transform="translate(540.5 974.5)" fill="none" stroke="#ff4a4a" stroke-width="3" stroke-dasharray="6 5"/>
    <path id="Trazado_51" data-name="Trazado 51" d="M0,0H841" transform="translate(539.5 814.5)" fill="none" stroke="#ff4a4a" stroke-width="3" stroke-dasharray="6 5"/>
    <path id="Trazado_49" data-name="Trazado 49" d="M0,385V0" transform="translate(652.5 702.5)" fill="none" stroke="#ff4a4a" stroke-width="3" stroke-dasharray="6 5"/>
    <path id="Trazado_54" data-name="Trazado 54" d="M0,386V0" transform="translate(1267.5 701.5)" fill="none" stroke="#ff4a4a" stroke-width="3" stroke-dasharray="6 5"/>
    <path id="Trazado_50" data-name="Trazado 50" d="M0,379V0" transform="translate(540.5 705.5)" fill="none" stroke="#ff4a4a" stroke-width="3" stroke-dasharray="6 5"/>
    <path id="Trazado_55" data-name="Trazado 55" d="M0,379V0" transform="translate(1380.5 705.5)" fill="none" stroke="#ff4a4a" stroke-width="3" stroke-dasharray="6 5"/>
  </g>
</svg>
