<svg xmlns="http://www.w3.org/2000/svg" xmlns:xlink="http://www.w3.org/1999/xlink" viewBox="0 0 326 85.92">
    <defs>
        <style>
            .cls-1 {
                fill: url(#Degradado_sin_nombre_273);
            }

            .cls-2 {
                fill: #b4cc89;
            }

            .cls-3 {
                fill: url(#Degradado_sin_nombre_273-2);
            }

            .cls-4 {
                fill: url(#Degradado_sin_nombre_273-3);
            }

            .cls-5 {
                fill: #183f61;
            }

            .cls-6 {
                fill: #a6c47c;
            }

            .cls-7 {
                fill: url(#Degradado_sin_nombre_273-4);
            }



            .xl {
                opacity: 1;
            }

            .lg {
                opacity: 0;
            }

            .md {
                opacity: 0;
            }

            .sm {
                opacity: 0;
            }

            @media only screen and (max-width: 992px) {
                .xl {
                    opacity: 0;
                }

                .lg {
                    opacity: 1;
                }

                .md {
                    opacity: 0;
                }

                .sm {
                    opacity: 0;
                }
            }

            @media only screen and (max-width: 768px) {
                .xl {
                    opacity: 0;
                }

                .lg {
                    opacity: 0;
                }

                .md {
                    opacity: 1;
                }

                .sm {
                    opacity: 0;
                }
            }


            @media only screen and (max-width:576px) {
                .xl {
                    opacity: 0;
                }

                .lg {
                    opacity: 0;
                }

                .md {
                    opacity: 0;
                }

                .sm {
                    opacity: 1;
                }
            }




            }

        </style>
        <linearGradient id="Degradado_sin_nombre_273" x1="0.06" y1="30.95" x2="326" y2="30.95" gradientUnits="userSpaceOnUse">
            <stop offset="0" stop-color="#b5ce87" />
            <stop offset="1" stop-color="#0f314d" />
        </linearGradient>
        <linearGradient id="Degradado_sin_nombre_273-2" x1="0" y1="31.09" x2="326" y2="31.09" xlink:href="#Degradado_sin_nombre_273" />
        <linearGradient id="Degradado_sin_nombre_273-3" x1="95.14" y1="30.84" x2="134" y2="30.84" xlink:href="#Degradado_sin_nombre_273" />
        <linearGradient id="Degradado_sin_nombre_273-4" x1="94.12" y1="31.01" x2="134.94" y2="31.01" xlink:href="#Degradado_sin_nombre_273" />
    </defs>
    <title>logos_3</title>
    <g id="Capa_2" data-name="Capa 2">
        <g id="Capa_1-2" data-name="Capa 1" class="xl">
            <path class="cls-1" d="M134.4,31.19A30,30,0,0,1,94.92,59.51a.17.17,0,0,1,0-.33,30,30,0,0,0,4-55l.26.39a11.94,11.94,0,0,1,1.47,4.58,34.47,34.47,0,0,1,.2,6.22q-.16,3.43-.53,7.12c-.24,2.45-.47,4.88-.69,7.27s-.34,4.65-.36,6.76a22.6,22.6,0,0,0,.57,5.6,7.11,7.11,0,0,0,2,3.73.81.81,0,0,1,.3.66c0,.23-.19.37-.49.41a1.69,1.69,0,0,1-.58-.1c-1.45-.52-2.44-1.85-3-4a32.85,32.85,0,0,1-.77-7.61q0-4.38.44-9.37c.28-3.32.51-6.43.68-9.31a50.63,50.63,0,0,0,0-7.35A7.47,7.47,0,0,0,98,7c-.07-.17-.23-.67-.3-.84-.15-.37-.13-.43-.31-.86S97,4.39,96.84,4a2.44,2.44,0,0,0-.28-.56A2.94,2.94,0,0,0,96.13,3a2.7,2.7,0,0,0-.7-.37.2.2,0,0,1,0-.37,30.05,30.05,0,0,1,39,29ZM7.18,56.05a4.7,4.7,0,0,0,3.48-1.53,13.81,13.81,0,0,0,2.62-4.07,42.11,42.11,0,0,0,2-5.68q.87-3.17,1.54-6.39.66-3,1.24-5.85c.39-1.91.75-3.62,1.08-5.11s.65-2.71.95-3.65.62-1.44,1-1.49.79.67,1.2,2.19.89,3.46,1.41,5.81,1.16,4.91,1.91,7.68a54.17,54.17,0,0,0,2.7,7.72A21.33,21.33,0,0,0,32,51.61,6.78,6.78,0,0,0,37.14,54a8.71,8.71,0,0,0,2.73-.5,4.36,4.36,0,0,0,2.62-2.62,12,12,0,0,0,.62-4.56,34.5,34.5,0,0,0-.75-6c-.44-2.19-1-4.44-1.53-6.77s-1.15-4.62-1.7-6.89-1-4.41-1.33-6.43a23.83,23.83,0,0,1-.33-5.43A6.93,6.93,0,0,1,38.71,11a.76.76,0,0,0,.17-.66.45.45,0,0,0-.5-.34,1.31,1.31,0,0,0-.5.17q-1.82,1-2,4.19a33.33,33.33,0,0,0,.46,7.39q.66,4.19,1.78,8.92t2,8.84a52.92,52.92,0,0,1,1.08,7c.14,2-.21,3.17-1,3.61a2.8,2.8,0,0,1-.66.17c-.83,0-1.61-.81-2.32-2.41a46.71,46.71,0,0,1-2.12-6c-.69-2.37-1.4-5-2.12-7.8a71.18,71.18,0,0,0-2.44-7.8,29.05,29.05,0,0,0-3-6Q25.77,18,23.61,18a1.86,1.86,0,0,0-.33,0A1.24,1.24,0,0,1,23,18a4.68,4.68,0,0,0-2.58,1.21,8.18,8.18,0,0,0-1.78,3.15A49.8,49.8,0,0,0,17,28.33c-.55,2.49-1.24,5.68-2.07,9.55C14.45,40,14,42.08,13.44,44s-1.06,3.65-1.61,5.14a20.29,20.29,0,0,1-1.66,3.57c-.56.89-1.08,1.33-1.58,1.33H8.42c-.61-.17-.76-1.3-.45-3.4s.73-4.75,1.28-7.93S10.39,36.09,11,32.36a75,75,0,0,0,1-10.79,30,30,0,0,0-1.12-9.17A8.29,8.29,0,0,0,6.43,6.92a1.26,1.26,0,0,0-.5-.08c-.44,0-.7.17-.78.5a.89.89,0,0,0,.29.91c.22.22.2,1.07-.05,2.53s-.62,3.31-1.12,5.52-1,4.7-1.61,7.47-1.1,5.59-1.54,8.46S.36,37.92.17,40.66a33.77,33.77,0,0,0,.2,7.42,13.44,13.44,0,0,0,1.95,5.48A5.69,5.69,0,0,0,6.6,56.05Zm48.88-1.78,9.21-.21c.44,0,.65-.26.62-.79s-.26-.79-.7-.79c-.67.06-1.48.09-2.45.09s-2,0-3.2.08c.11-1.11.28-2.75.5-4.94s.46-4.65.71-7.38.51-5.62.78-8.64.54-5.89.79-8.63.46-5.2.63-7.38.27-3.8.33-4.86c.88-.05,1.74-.08,2.57-.08h2.41c.44,0,.65-.26.62-.79s-.26-.79-.71-.79c-1.21,0-2.58,0-4.1.05s-3.1.07-4.73.12l-4.94.21c-1.66.08-3.21.18-4.65.29a.55.55,0,0,0-.5.29,1.22,1.22,0,0,0-.16.62.91.91,0,0,0,.2.58.66.66,0,0,0,.54.25l5.56-.33c-.22,1.16-.48,2.89-.79,5.19s-.62,4.84-1,7.63-.66,5.73-1,8.8-.64,5.94-.92,8.63-.48,5-.62,7-.21,3.42-.21,4.19c-1.11,0-2.17,0-3.19,0s-2,0-2.87,0c-.44,0-.66.27-.66.79s.25.79.75.79Q50.66,54.39,56.06,54.27ZM75.47,16.34q-.82,4.69-1.41,9.55c-.38,3.23-.69,6.41-.91,9.54s-.31,6-.25,8.59a40.57,40.57,0,0,0,.62,6.68,7,7,0,0,0,1.62,3.77,3.53,3.53,0,0,0,1.83.92,13.11,13.11,0,0,0,2.65.25,27.06,27.06,0,0,0,4.53-.42c1.63-.28,3.23-.62,4.81-1a39.23,39.23,0,0,0,4.4-1.41,29.77,29.77,0,0,0,3.27-1.45.88.88,0,0,0,.38-1c-.08-.45-.32-.67-.71-.67a.53.53,0,0,0-.33.08Q93.32,50.91,90.45,52a14.12,14.12,0,0,1-4.77,1.08,2.46,2.46,0,0,1-1.82-.58c-.34-.38-.54-1.53-.63-3.44s-.07-4.26,0-7.06.28-5.86.5-9.21.47-6.59.75-9.75.52-6.07.75-8.75.38-4.74.49-6.18c.06-.39-.41-.68-1.41-.88a16.69,16.69,0,0,0-3.15-.29,13.22,13.22,0,0,0-2.66.25c-.77.17-1.21.39-1.32.67C76.61,10.38,76,13.22,75.47,16.34Zm66.66,2q-.66,5.87-1.24,12.16t-1,12.45q-.37,6.14-.54,11.12a1.63,1.63,0,0,0,.42,1.08A3.49,3.49,0,0,0,141,56a6.1,6.1,0,0,0,1.66.54,10.17,10.17,0,0,0,1.82.16,5.68,5.68,0,0,0,2.29-.41A1.76,1.76,0,0,0,147.86,55q.73-5.38,1.61-12.65T151,27.17a12.45,12.45,0,0,1,2.32-1,7.6,7.6,0,0,1,2.24-.37,4.75,4.75,0,0,1,2.41.67c.5.33.89,1.25,1.16,2.78s.53,3.34.75,5.47.48,4.4.79,6.81A47.62,47.62,0,0,0,162,48.25a20.27,20.27,0,0,0,2.33,5.44,5.91,5.91,0,0,0,3.77,2.78h.17a.78.78,0,0,0,.83-.63c.11-.41-.08-.7-.58-.87-.28,0-.42-.72-.42-2s0-2.85.05-4.73,0-4-.09-6.27a50.43,50.43,0,0,0-.7-6.76,25.23,25.23,0,0,0-1.83-6.06A9.37,9.37,0,0,0,162.05,25a19.87,19.87,0,0,0,3.52-4.64A18.63,18.63,0,0,0,167.65,15a8.68,8.68,0,0,0-.17-4.65,4,4,0,0,0-3.36-2.53,3.43,3.43,0,0,0-.7-.09h-.63a9,9,0,0,0-6.35,2.74,22.33,22.33,0,0,0-4.85,7.39q.25-4.65.25-9a2,2,0,0,0-1.29-2,7,7,0,0,0-2.86-.58,8.36,8.36,0,0,0-2.78.46c-.86.3-1.34.73-1.45,1.29Q142.78,12.49,142.13,18.33Zm21.16-6.39a14.29,14.29,0,0,1-2.12,4.36A30,30,0,0,1,157,21.2a21.69,21.69,0,0,1-5.89,4.06,29.47,29.47,0,0,1,2.16-7.09,24,24,0,0,1,3-5,13.6,13.6,0,0,1,3.19-3,5.35,5.35,0,0,1,2.66-1,1.51,1.51,0,0,1,.91.25C163.54,9.8,163.62,10.65,163.29,11.94Zm17.18,44a20.32,20.32,0,0,0,4.48-.58,47.22,47.22,0,0,0,5.06-1.5,48.28,48.28,0,0,0,5.06-2.11,45.3,45.3,0,0,0,4.57-2.53.79.79,0,0,0,.41-1,.9.9,0,0,0-.91-.62,1.25,1.25,0,0,0-.5.16c-.61.39-1.41.85-2.4,1.37s-2.07,1-3.2,1.54a29.07,29.07,0,0,1-3.4,1.24,10.87,10.87,0,0,1-2.95.5,2.48,2.48,0,0,1-1.49-.33c-.33-.22-.58-1-.75-2.2s-.28-2.84-.33-4.77,0-4.11,0-6.52.21-4.88.37-7.42q3.24-.59,6.44-1t6.43-.79c.55-.11.81-.4.79-.87s-.32-.76-.87-.87q-3.16.33-6.31.71t-6.31.95c.17-2.1.37-4.18.62-6.22s.51-3.93.79-5.65.58-3.2.92-4.48a12.17,12.17,0,0,1,1.07-2.9c.22-.44.78-.67,1.66-.67a10.54,10.54,0,0,1,2.08.25q1.16.25,2.4.63c.83.24,1.66.48,2.49.7s1.58.39,2.24.5h.25a.9.9,0,0,0,1-.71c.11-.47-.14-.79-.75-.95-.77-.22-1.71-.49-2.82-.79s-2.31-.61-3.61-.91-2.61-.57-3.94-.79A23.39,23.39,0,0,0,185.28,7a12.26,12.26,0,0,0-3.28.41,5.07,5.07,0,0,0-2.36,1.41q-.91,1-1.91,4.69t-1.82,8.63q-.84,4.94-1.37,10.5a98.72,98.72,0,0,0-.5,10.41,38.39,38.39,0,0,0,.83,8.3c.52,2.3,1.37,3.67,2.53,4.11A8.32,8.32,0,0,0,180.47,56Zm28.46-5q.25-2.28.54-5.48c.19-2.13.42-4.47.67-7s.56-5.09,1-7.64c2.43-.44,4.83-.79,7.18-1s4.77-.43,7.26-.54c-.22,3.21-.4,6.44-.54,9.71a40.43,40.43,0,0,0,.5,8.83,14.1,14.1,0,0,0,2.69,6.43c1.33,1.67,3.35,2.49,6.06,2.49A.68.68,0,0,0,235,56c0-.47-.29-.68-.95-.62-.28,0-.32-.78-.13-2.33s.49-3.56.87-6.05.76-5.32,1.12-8.47a83.34,83.34,0,0,0,.54-9.46h1.41c.5,0,.75-.28.75-.83a.88.88,0,0,0-.66-1h-1.5a43.94,43.94,0,0,0-.7-7,22.27,22.27,0,0,0-1.95-6A12.67,12.67,0,0,0,230.3,10a10.43,10.43,0,0,0-5.43-2,3.41,3.41,0,0,0-.71-.08h-.71A11.7,11.7,0,0,0,217,9.66,18.08,18.08,0,0,0,212,14.52a30.51,30.51,0,0,0-3.56,6.93A68.26,68.26,0,0,0,206,29.5c-.67,2.76-1.19,5.51-1.58,8.25s-.69,5.23-.91,7.47-.37,4.14-.46,5.69a20.13,20.13,0,0,1-.29,3,1.09,1.09,0,0,0,.58,1.29,4.06,4.06,0,0,0,1.83.37,5.31,5.31,0,0,0,2-.37,1.9,1.9,0,0,0,1.2-1A15.18,15.18,0,0,0,208.93,51Zm15.81-39.13a11.69,11.69,0,0,1,1.12,3.82,30,30,0,0,1,.21,5.35c-.08,2-.21,4.16-.37,6.43q-3.66.16-7.18.46a70.2,70.2,0,0,0-7.1.95q.59-3.73,1.45-7.13a36.37,36.37,0,0,1,2.08-6,13.25,13.25,0,0,1,2.82-4.15A5.24,5.24,0,0,1,221.46,10a2.66,2.66,0,0,1,.83.09A3.14,3.14,0,0,1,224.74,11.82ZM246,13.11c-.34,2.57-.68,5.51-1,8.83s-.71,6.82-1,10.5-.62,7.1-.87,10.25-.43,5.85-.54,8.09a35.83,35.83,0,0,0-.08,4c.11.44.66.78,1.66,1a13.58,13.58,0,0,0,3.32.38,12.89,12.89,0,0,0,2.78-.29,2.26,2.26,0,0,0,1.61-1,20.09,20.09,0,0,0,1-5.35c.25-2.52.5-5.35.75-8.51s.52-6.44.83-9.87a75.78,75.78,0,0,1,1.37-9.38,25.09,25.09,0,0,1,2.45-7q1.53-2.75,3.94-2.74a2.75,2.75,0,0,1,.83.09c1,.22,1.82,1.17,2.32,2.86a27.72,27.72,0,0,1,.95,6.35,76.75,76.75,0,0,1,0,8.42c-.16,3.07-.36,6.1-.58,9.09s-.43,5.76-.62,8.34-.29,4.63-.29,6.18c0,.22.19.44.58.66a6.43,6.43,0,0,0,1.45.58,15.5,15.5,0,0,0,1.91.42,12.38,12.38,0,0,0,1.95.16,6.85,6.85,0,0,0,1.79-.2c.46-.14.7-.35.7-.63q1.17-10.2,2.53-18.34a140.66,140.66,0,0,1,2.95-13.85A37.35,37.35,0,0,1,282,13.52q1.78-3,3.61-3H286c.89.17,1.46,1,1.7,2.37a25.93,25.93,0,0,1,.25,5.43c-.08,2.22-.25,4.69-.49,7.43s-.45,5.52-.58,8.34a82.06,82.06,0,0,0,0,8.3,27.35,27.35,0,0,0,1.24,7.22,11.46,11.46,0,0,0,3.15,5.06,8.32,8.32,0,0,0,5.77,1.91h.83q.75-.09.75-.75c0-.44-.25-.69-.75-.74a2.57,2.57,0,0,1-2.16-2.12,19.69,19.69,0,0,1-.62-5.11q0-3.15.25-7.13c.19-2.66.39-5.4.58-8.22s.33-5.6.42-8.34a39.81,39.81,0,0,0-.42-7.46A16.18,16.18,0,0,0,294.07,11a5.77,5.77,0,0,0-3.81-2.86,9.36,9.36,0,0,0-2.16-.25,7.71,7.71,0,0,0-5,1.74,15.57,15.57,0,0,0-3.78,4.69,36.06,36.06,0,0,0-2.78,6.76,82.36,82.36,0,0,0-2,8.05,48.85,48.85,0,0,0-.83-7.42,22.26,22.26,0,0,0-1.91-5.81,10.78,10.78,0,0,0-3.15-3.86A9.05,9.05,0,0,0,264,10.41a8.8,8.8,0,0,0-3.81.75,7.55,7.55,0,0,0-2.66,2,11.33,11.33,0,0,0-1.78,3,36,36,0,0,0-1.29,3.69V8.33c0-.49-.44-.87-1.33-1.12a10.68,10.68,0,0,0-2.82-.37,9,9,0,0,0-2.24.25c-.66.17-1,.44-1.16.83A36,36,0,0,0,246,13.11Zm76,.24a5.94,5.94,0,0,0-1.2-2.82,5.65,5.65,0,0,0-2.24-1.66,7.65,7.65,0,0,0-2.82-.54,9.09,9.09,0,0,0-2.95.5,9.32,9.32,0,0,0-2.7,1.46,8.85,8.85,0,0,0-2.11,2.32,6.92,6.92,0,0,0-1,3.11,15.24,15.24,0,0,0,1.12,7.18A77.6,77.6,0,0,0,311.46,30c1.24,2.36,2.35,4.68,3.32,7a13.69,13.69,0,0,1,1.12,6.76c-.33,2.71-1.14,4.67-2.41,5.89a5.89,5.89,0,0,1-4.15,1.83,6.33,6.33,0,0,1-3.27-1,7.58,7.58,0,0,1-2.66-2.65,9.47,9.47,0,0,1-1.25-4.15,13.88,13.88,0,0,1,.79-5.44.94.94,0,0,0,0-1,.84.84,0,0,0-.7-.42.81.81,0,0,0-.75.58,15.53,15.53,0,0,0-.87,7.43,11.09,11.09,0,0,0,2.28,5.31,10.75,10.75,0,0,0,4.44,3.19,14.55,14.55,0,0,0,5.52,1.08,15.07,15.07,0,0,0,4.56-.7,12.75,12.75,0,0,0,4-2.08,12.17,12.17,0,0,0,3-3.44,11.34,11.34,0,0,0,1.49-4.9,16.25,16.25,0,0,0-.54-5.85,25.11,25.11,0,0,0-2.2-5.31,51.08,51.08,0,0,0-3.11-4.89q-1.69-2.37-3.2-4.57a31.88,31.88,0,0,1-2.44-4.19,8.92,8.92,0,0,1-1-3.9,3.9,3.9,0,0,1,1.29-3.11,4,4,0,0,1,2.7-1.12,3.12,3.12,0,0,1,2.57,1.53q1.08,1.55.25,5.11a.73.73,0,0,0,.12.79.88.88,0,0,0,.62.29.86.86,0,0,0,.83-.67A11.17,11.17,0,0,0,322.08,13.35Z" />
            <path class="cls-2" d="M53.73,80.11a9.07,9.07,0,0,1-.29,2.4,5,5,0,0,1-.81,1.74,3.58,3.58,0,0,1-1.28,1,3.92,3.92,0,0,1-1.66.35H47.31V74.54h2.4a3.73,3.73,0,0,1,1.65.35A3.33,3.33,0,0,1,52.64,76a5,5,0,0,1,.8,1.75A9.2,9.2,0,0,1,53.73,80.11Zm-1.09,0a8.39,8.39,0,0,0-.22-2.06,4.57,4.57,0,0,0-.63-1.44,2.69,2.69,0,0,0-.94-.85,2.49,2.49,0,0,0-1.17-.28H48.39v9.23h1.29a2.62,2.62,0,0,0,1.17-.28,2.8,2.8,0,0,0,.94-.85,4.57,4.57,0,0,0,.63-1.44A8.14,8.14,0,0,0,52.64,80.11Z" />
            <path class="cls-2" d="M65,85.65,63,80.5H61.59v5.15H60.51V74.54h2.67a3.77,3.77,0,0,1,1.06.15,2.31,2.31,0,0,1,.91.49,2.37,2.37,0,0,1,.64.91A3.54,3.54,0,0,1,66,77.47a3.44,3.44,0,0,1-.19,1.22,2.57,2.57,0,0,1-.47.85,2.17,2.17,0,0,1-.64.54,2.21,2.21,0,0,1-.7.23l2.17,5.34ZM65,77.53a2.64,2.64,0,0,0-.17-1,1.62,1.62,0,0,0-.44-.63,1.49,1.49,0,0,0-.62-.33,3,3,0,0,0-.73-.09H61.59v4.16h1.46a1.82,1.82,0,0,0,1.41-.56A2.21,2.21,0,0,0,65,77.53Z" />
            <path class="cls-2" d="M72.69,85.65V74.54h4.48v1H73.76V79.4H77v.94H73.76v4.32h3.56v1Z" />
            <path class="cls-2" d="M88.72,85.65l-.67-2.78H84.62l-.7,2.78H82.8l2.83-11.11h1.49l2.75,11.11ZM86.38,75.52h-.06L84.78,82h3.11Z" />
            <path class="cls-2" d="M103.54,85.65V76h0l-2.73,9.65h-1L97,76h0v9.65H96V74.54h1.63l2.66,9.38h.06l2.62-9.38h1.7V85.65Z" />
            <path class="cls-2" d="M119.49,85.65V74.54h1.1V85.65Z" />
            <path class="cls-2" d="M132.79,85.65l-3.86-9.25h-.05v9.25h-1V74.54h1.37l3.85,9.24h0V74.54h1V85.65Z" />
            <path class="cls-2" d="M143.31,75.48V85.65h-1.08V75.48h-2.14v-.94h5.37v.94Z" />
            <path class="cls-2" d="M158.13,80.08a10.35,10.35,0,0,1-.25,2.38,6.42,6.42,0,0,1-.72,1.84A3.65,3.65,0,0,1,156,85.49a2.77,2.77,0,0,1-1.54.43,2.85,2.85,0,0,1-1.55-.43,3.67,3.67,0,0,1-1.16-1.19,6.15,6.15,0,0,1-.73-1.84,10.94,10.94,0,0,1-.25-2.38,10.77,10.77,0,0,1,.24-2.36,6.31,6.31,0,0,1,.72-1.84,3.65,3.65,0,0,1,1.15-1.19,3,3,0,0,1,1.58-.42,2.85,2.85,0,0,1,1.54.42,3.75,3.75,0,0,1,1.15,1.19,6.31,6.31,0,0,1,.72,1.84A10.17,10.17,0,0,1,158.13,80.08Zm-1.15,0a11.31,11.31,0,0,0-.15-1.89,6,6,0,0,0-.48-1.52,3,3,0,0,0-.8-1,1.67,1.67,0,0,0-1.08-.38,1.76,1.76,0,0,0-1.12.38,2.85,2.85,0,0,0-.79,1,6,6,0,0,0-.48,1.52,11.31,11.31,0,0,0-.15,1.89,11.11,11.11,0,0,0,.15,1.88,6.2,6.2,0,0,0,.48,1.54,2.84,2.84,0,0,0,.79,1,1.76,1.76,0,0,0,1.12.37,1.7,1.7,0,0,0,1.1-.37,2.82,2.82,0,0,0,.78-1,6.2,6.2,0,0,0,.48-1.54A11.11,11.11,0,0,0,157,80.08Z" />
            <path class="cls-2" d="M174.1,75.48V85.65H173V75.48h-2.13v-.94h5.37v.94Z" />
            <path class="cls-2" d="M187.58,85.65V80.38h-4.25v5.27h-1.1V74.54h1.1V79.4h4.25V74.54h1.1V85.65Z" />
            <path class="cls-2" d="M195.93,85.65V74.54h4.48v1H197V79.4h3.19v.94H197v4.32h3.57v1Z" />
            <path class="cls-2" d="M219.77,85.65,215.9,76.4h0v9.25h-1V74.54h1.37L220,83.78h.05V74.54h1V85.65Z" />
            <path class="cls-2" d="M233.1,85.65l-.68-2.78H229l-.71,2.78h-1.11L230,74.54h1.49l2.75,11.11Zm-2.34-10.13h-.07L229.15,82h3.11Z" />
            <path class="cls-2" d="M242,75.48V85.65h-1.09V75.48h-2.13v-.94h5.37v.94Z" />
            <path class="cls-2" d="M256.18,83.38a4.07,4.07,0,0,1-.53,1.33,2.63,2.63,0,0,1-1,.89,3.27,3.27,0,0,1-1.51.32,3.2,3.2,0,0,1-1.5-.32,2.6,2.6,0,0,1-1-.89,3.86,3.86,0,0,1-.53-1.33,8.32,8.32,0,0,1-.16-1.62V74.54h1.1v7.08a8.21,8.21,0,0,0,.09,1.21,3.75,3.75,0,0,0,.31,1.06,2.06,2.06,0,0,0,.63.74,1.78,1.78,0,0,0,1.05.28,1.76,1.76,0,0,0,1-.28,2,2,0,0,0,.64-.74,3.66,3.66,0,0,0,.31-1.06,7.92,7.92,0,0,0,.09-1.21V74.54h1.1v7.22A7.59,7.59,0,0,1,256.18,83.38Z" />
            <path class="cls-2" d="M268,85.65l-2-5.15h-1.43v5.15h-1.09V74.54h2.67a3.72,3.72,0,0,1,1.06.15,2.24,2.24,0,0,1,.91.49,2.39,2.39,0,0,1,.65.91,3.55,3.55,0,0,1,.24,1.38,3.69,3.69,0,0,1-.18,1.22,2.76,2.76,0,0,1-.47.85,2.3,2.3,0,0,1-.64.54,2.21,2.21,0,0,1-.7.23l2.16,5.34Zm-.07-8.12a2.65,2.65,0,0,0-.16-1,1.74,1.74,0,0,0-.44-.63,1.47,1.47,0,0,0-.63-.33,2.92,2.92,0,0,0-.73-.09h-1.41v4.16H266a1.82,1.82,0,0,0,1.4-.56A2.21,2.21,0,0,0,267.93,77.53Z" />
            <path class="cls-2" d="M275.66,85.65V74.54h4.47v1h-3.4V79.4h3.18v.94h-3.18v4.32h3.56v1Z" />
        </g>
        <g id="Capa_2-2" data-name="Capa 2" class="lg">
            <path class="cls-3" d="M134.36,31.34c-.13,16.93-13.71,30.55-30.33,30.41a29.47,29.47,0,0,1-9.15-1.55.18.18,0,0,1,0-.34,30.85,30.85,0,0,0,4-56.08c.09.13.18.26.26.4a12.35,12.35,0,0,1,1.47,4.67,36.66,36.66,0,0,1,.2,6.33q-.16,3.51-.53,7.26t-.69,7.41q-.33,3.66-.36,6.89a23.53,23.53,0,0,0,.57,5.71,7.34,7.34,0,0,0,2,3.8.78.78,0,0,1,.29.67c0,.24-.18.37-.49.41a1.46,1.46,0,0,1-.57-.1c-1.45-.52-2.44-1.89-3-4.08a33.55,33.55,0,0,1-.77-7.76q0-4.45.44-9.54t.67-9.49a51.44,51.44,0,0,0,0-7.5A8,8,0,0,0,98,6.64c-.07-.17-.23-.68-.3-.86-.15-.38-.13-.44-.31-.87S97,4,96.8,3.64a2.49,2.49,0,0,0-.28-.57,2.66,2.66,0,0,0-.44-.5,2.37,2.37,0,0,0-.69-.37.2.2,0,0,1,0-.38A29.22,29.22,0,0,1,104.51.44C121.13.57,134.49,14.41,134.36,31.34ZM7.12,56.67a4.69,4.69,0,0,0,3.49-1.56A14.35,14.35,0,0,0,13.22,51a42,42,0,0,0,2-5.79c.58-2.14,1.1-4.31,1.54-6.51.44-2,.86-4,1.24-6s.75-3.68,1.08-5.2.65-2.76,1-3.72.62-1.47.95-1.53.79.7,1.21,2.24.88,3.53,1.41,5.92,1.16,5,1.91,7.83A54.45,54.45,0,0,0,28.2,46.1a21.55,21.55,0,0,0,3.78,6,6.76,6.76,0,0,0,5.1,2.41,8.52,8.52,0,0,0,2.74-.51,4.44,4.44,0,0,0,2.62-2.66,12.48,12.48,0,0,0,.62-4.65,37.91,37.91,0,0,0-.75-6.09q-.66-3.34-1.53-6.9t-1.7-7c-.56-2.32-1-4.5-1.33-6.56a24.19,24.19,0,0,1-.33-5.54,7.18,7.18,0,0,1,1.24-3.89.78.78,0,0,0,.17-.67.45.45,0,0,0-.5-.34,1.16,1.16,0,0,0-.5.17c-1.22.67-1.9,2.1-2,4.27a35,35,0,0,0,.45,7.52c.45,2.85,1,5.88,1.79,9.09s1.41,6.22,2,9A55.09,55.09,0,0,1,41.11,47c.14,2-.21,3.23-1,3.68a2.8,2.8,0,0,1-.66.17c-.83,0-1.61-.82-2.33-2.46A47.4,47.4,0,0,1,35,42.29c-.7-2.42-1.4-5.07-2.12-7.94a72.73,72.73,0,0,0-2.45-8,28.77,28.77,0,0,0-3-6.09c-1.1-1.64-2.38-2.45-3.82-2.45a1.24,1.24,0,0,0-.33,0,1.24,1.24,0,0,1-.33,0,4.61,4.61,0,0,0-2.57,1.23,8.42,8.42,0,0,0-1.79,3.21,55.33,55.33,0,0,0-1.62,6.05c-.55,2.53-1.24,5.78-2.07,9.72-.44,2.2-.93,4.29-1.45,6.26s-1.07,3.72-1.62,5.24a20.56,20.56,0,0,1-1.66,3.64c-.56.9-1.08,1.35-1.58,1.35H8.37c-.61-.17-.77-1.32-.46-3.47s.73-4.83,1.29-8.07,1.13-6.77,1.74-10.57a77.91,77.91,0,0,0,1-11,31.1,31.1,0,0,0-1.13-9.34A8.36,8.36,0,0,0,6.37,6.61a1,1,0,0,0-.49-.09c-.45,0-.71.17-.79.51A.92.92,0,0,0,5.38,8c.22.23.21,1.09,0,2.58s-.63,3.37-1.12,5.63S3.18,21,2.6,23.78,1.5,29.47,1.06,32.4.3,38.19.11,41a35.14,35.14,0,0,0,.2,7.57,13.66,13.66,0,0,0,2,5.58,5.61,5.61,0,0,0,4.27,2.54ZM56,54.85l9.21-.21c.44,0,.65-.27.62-.8s-.26-.81-.7-.81c-.67.06-1.48.09-2.45.09s-2,0-3.2.08c.11-1.12.28-2.8.5-5s.46-4.73.71-7.52.51-5.72.79-8.8.54-6,.79-8.79.45-5.3.62-7.53.27-3.87.33-4.95c.88-.05,1.74-.08,2.57-.08h2.41c.44,0,.65-.27.62-.8s-.26-.81-.7-.81c-1.22,0-2.59,0-4.11,0s-3.1.07-4.73.12l-4.94.21q-2.49.13-4.65.3a.55.55,0,0,0-.5.29,1.29,1.29,0,0,0-.16.64.88.88,0,0,0,.2.59.66.66,0,0,0,.54.25L55.34,11q-.33,1.77-.78,5.28c-.31,2.34-.63,4.94-1,7.78s-.66,5.84-1,9-.64,6.06-.92,8.79S51.21,47,51.07,49s-.21,3.48-.21,4.27c-1.11,0-2.17,0-3.19,0s-2,0-2.87,0q-.66,0-.66.81c0,.53.25.8.75.8Q50.61,55,56,54.85ZM75.43,16.21Q74.59,21,74,25.93t-.92,9.73q-.33,4.77-.25,8.75a42.08,42.08,0,0,0,.63,6.81,7.12,7.12,0,0,0,1.62,3.84,3.47,3.47,0,0,0,1.82.93,12.49,12.49,0,0,0,2.66.26,25.93,25.93,0,0,0,4.52-.43c1.63-.28,3.24-.63,4.82-1a39,39,0,0,0,4.39-1.44,29.44,29.44,0,0,0,3.28-1.48.92.92,0,0,0,.38-1c-.09-.45-.32-.68-.71-.68a.51.51,0,0,0-.33.08c-1.77.79-3.61,1.56-5.52,2.29a14,14,0,0,1-4.77,1.1,2.46,2.46,0,0,1-1.83-.6c-.33-.39-.54-1.56-.62-3.5s-.07-4.34,0-7.19.28-6,.5-9.39.47-6.72.75-9.94.52-6.18.74-8.92.39-4.83.5-6.3c0-.39-.41-.69-1.41-.88a16,16,0,0,0-3.15-.3,12.46,12.46,0,0,0-2.66.25c-.78.17-1.22.4-1.33.68Q76.26,11.43,75.43,16.21Zm66.67,2q-.67,6-1.25,12.39t-.95,12.68q-.37,6.25-.54,11.33a1.73,1.73,0,0,0,.41,1.1,3.75,3.75,0,0,0,1.16.89,6.61,6.61,0,0,0,1.66.55,10.3,10.3,0,0,0,1.83.17,5.59,5.59,0,0,0,2.28-.42,1.79,1.79,0,0,0,1.12-1.36q.75-5.49,1.62-12.89T151,27.24a11.89,11.89,0,0,1,2.32-1,7,7,0,0,1,2.24-.38,4.75,4.75,0,0,1,2.41.67c.5.34.88,1.29,1.16,2.84s.53,3.41.75,5.58.48,4.48.79,6.93A47.81,47.81,0,0,0,162,48.72a20.39,20.39,0,0,0,2.32,5.54,5.85,5.85,0,0,0,3.78,2.83h.16a.78.78,0,0,0,.83-.63c.11-.42-.08-.72-.58-.89-.28,0-.41-.73-.41-2s0-2.9,0-4.82,0-4-.09-6.38a50.41,50.41,0,0,0-.7-6.89,25.94,25.94,0,0,0-1.83-6.18A9.44,9.44,0,0,0,162,25a20,20,0,0,0,3.52-4.73,19.12,19.12,0,0,0,2.08-5.46,9,9,0,0,0-.17-4.73,4,4,0,0,0-3.36-2.58,3.32,3.32,0,0,0-.7-.08h-.63a8.92,8.92,0,0,0-6.35,2.79,22.78,22.78,0,0,0-4.85,7.52c.17-3.15.25-6.2.25-9.13a2.06,2.06,0,0,0-1.29-2A6.84,6.84,0,0,0,147.66,6a8.07,8.07,0,0,0-2.78.46c-.86.31-1.34.75-1.46,1.31Q142.76,12.27,142.1,18.24Zm21.16-6.51a15,15,0,0,1-2.12,4.44,30.78,30.78,0,0,1-4.19,5,21.7,21.7,0,0,1-5.89,4.15,30.54,30.54,0,0,1,2.16-7.23,24.45,24.45,0,0,1,3-5.12,13.72,13.72,0,0,1,3.19-3,5.23,5.23,0,0,1,2.66-1,1.45,1.45,0,0,1,.91.26C163.51,9.54,163.59,10.4,163.26,11.73Zm17.18,44.86a19.23,19.23,0,0,0,4.48-.6A46,46,0,0,0,190,54.47a51.86,51.86,0,0,0,5.06-2.15,45.36,45.36,0,0,0,4.57-2.58.81.81,0,0,0,.41-1.06.91.91,0,0,0-.91-.63,1.16,1.16,0,0,0-.5.17c-.61.39-1.41.85-2.41,1.39s-2.06,1.06-3.19,1.56a27.73,27.73,0,0,1-3.41,1.27,10.43,10.43,0,0,1-2.94.51,2.43,2.43,0,0,1-1.5-.34c-.33-.22-.58-1-.74-2.24s-.28-2.89-.34-4.86,0-4.19,0-6.64.2-5,.37-7.57c2.16-.39,4.3-.72,6.43-1s4.28-.52,6.43-.8c.56-.12.82-.41.79-.89a.93.93,0,0,0-.87-.89l-6.31.72c-2.1.25-4.2.58-6.3,1q.24-3.21.62-6.34c.25-2.09.51-4,.79-5.75s.58-3.27.91-4.57a12.3,12.3,0,0,1,1.08-3c.22-.45.77-.67,1.66-.67a9.68,9.68,0,0,1,2.07.25c.78.17,1.58.38,2.41.63s1.66.5,2.49.72a22.12,22.12,0,0,0,2.24.51h.25a.91.91,0,0,0,1-.72c.11-.48-.14-.8-.75-1l-2.82-.8c-1.11-.31-2.31-.62-3.61-.93s-2.62-.58-4-.81a23.32,23.32,0,0,0-3.81-.34,11.79,11.79,0,0,0-3.28.43,5,5,0,0,0-2.37,1.43c-.61.68-1.24,2.27-1.91,4.78s-1.27,5.44-1.82,8.8-1,6.92-1.37,10.69a102.61,102.61,0,0,0-.5,10.62,40.48,40.48,0,0,0,.83,8.45q.79,3.51,2.53,4.19A8.11,8.11,0,0,0,180.44,56.59Zm28.47-5.12q.26-2.32.54-5.58c.19-2.17.42-4.55.66-7.15s.57-5.18,1-7.78c2.43-.45,4.83-.8,7.18-1.05s4.77-.44,7.26-.55c-.22,3.27-.4,6.56-.54,9.89a42.09,42.09,0,0,0,.5,9,14.48,14.48,0,0,0,2.7,6.55c1.33,1.69,3.34,2.54,6.06,2.54a.69.69,0,0,0,.78-.72c0-.48-.29-.69-.95-.64-.28,0-.32-.78-.12-2.36s.48-3.64.87-6.18.76-5.41,1.12-8.62a86.65,86.65,0,0,0,.54-9.64h1.41c.5,0,.75-.28.75-.85a.91.91,0,0,0-.67-1h-1.49a45.7,45.7,0,0,0-.71-7.15,22.44,22.44,0,0,0-1.95-6.09,12.63,12.63,0,0,0-3.53-4.39,10.27,10.27,0,0,0-5.43-2.08,4.15,4.15,0,0,0-.71-.08h-.7A11.5,11.5,0,0,0,217,9.4,18,18,0,0,0,212,14.35a31.32,31.32,0,0,0-3.56,7.06,70.69,70.69,0,0,0-2.45,8.2c-.67,2.82-1.19,5.62-1.58,8.42s-.69,5.32-.91,7.6-.38,4.22-.46,5.8a21,21,0,0,1-.29,3,1.1,1.1,0,0,0,.58,1.31,3.93,3.93,0,0,0,1.83.38,5.13,5.13,0,0,0,1.95-.38,1.94,1.94,0,0,0,1.2-1.05A15.82,15.82,0,0,0,208.91,51.47ZM224.72,11.6a12,12,0,0,1,1.12,3.89,31.13,31.13,0,0,1,.21,5.45c-.08,2.06-.21,4.25-.37,6.56-2.44.11-4.83.27-7.18.46a70.3,70.3,0,0,0-7.1,1c.39-2.53.87-5,1.45-7.27a36.87,36.87,0,0,1,2.08-6.13,13.68,13.68,0,0,1,2.82-4.23,5.18,5.18,0,0,1,3.69-1.56,3.11,3.11,0,0,1,.83.08A3.15,3.15,0,0,1,224.72,11.6ZM246,12.91q-.49,3.93-1,9t-1,10.69q-.51,5.63-.88,10.45t-.54,8.24a40.07,40.07,0,0,0-.08,4.1c.11.45.67.81,1.66,1.06a13.64,13.64,0,0,0,3.32.38,12.21,12.21,0,0,0,2.78-.3,2.2,2.2,0,0,0,1.62-1,21.3,21.3,0,0,0,1-5.45q.38-3.85.75-8.67c.24-3.21.52-6.57.82-10.06a80.59,80.59,0,0,1,1.38-9.56,25.86,25.86,0,0,1,2.44-7.1c1-1.86,2.34-2.79,3.95-2.79A3.22,3.22,0,0,1,263,12c1.05.23,1.82,1.2,2.32,2.92a28.79,28.79,0,0,1,.95,6.47,79.69,79.69,0,0,1,0,8.58c-.16,3.13-.36,6.22-.58,9.26s-.43,5.88-.62,8.5-.29,4.72-.29,6.3c0,.23.19.45.58.68a6.91,6.91,0,0,0,1.45.59,15.5,15.5,0,0,0,1.91.42,12.45,12.45,0,0,0,2,.17,6.41,6.41,0,0,0,1.79-.21c.47-.14.7-.35.7-.64q1.17-10.39,2.53-18.68t2.95-14.13A38.51,38.51,0,0,1,282,13.33q1.78-3.08,3.61-3.08H286c.88.17,1.45,1,1.7,2.41a27.6,27.6,0,0,1,.25,5.53c-.09,2.26-.25,4.78-.5,7.57s-.44,5.63-.58,8.5-.14,5.7,0,8.46a28.89,28.89,0,0,0,1.24,7.36,11.68,11.68,0,0,0,3.16,5.15,8.18,8.18,0,0,0,5.77,2h.83c.49-.06.74-.31.74-.76a.71.71,0,0,0-.74-.76q-1.59-.18-2.16-2.16a19.53,19.53,0,0,1-.62-5.2c0-2.14.05-4.57.24-7.27s.39-5.5.58-8.37.34-5.71.42-8.5a41.42,41.42,0,0,0-.42-7.61,16.91,16.91,0,0,0-1.86-5.75,5.81,5.81,0,0,0-3.82-2.92,9.38,9.38,0,0,0-2.16-.26,7.64,7.64,0,0,0-5,1.78,15.58,15.58,0,0,0-3.77,4.78,36.23,36.23,0,0,0-2.78,6.89,82,82,0,0,0-2,8.2,51,51,0,0,0-.83-7.57,22.92,22.92,0,0,0-1.91-5.91,10.91,10.91,0,0,0-3.15-3.94A9,9,0,0,0,264,10.16a8.85,8.85,0,0,0-3.82.76A7.83,7.83,0,0,0,257.55,13a11.73,11.73,0,0,0-1.79,3,35.14,35.14,0,0,0-1.28,3.76V8.05c0-.51-.45-.89-1.33-1.14a10,10,0,0,0-2.82-.39,9,9,0,0,0-2.24.26q-1,.25-1.17.84A39.33,39.33,0,0,0,246,12.91Zm76.07.25a6.08,6.08,0,0,0-1.2-2.87,5.54,5.54,0,0,0-2.24-1.69,7.28,7.28,0,0,0-2.83-.55,9.08,9.08,0,0,0-2.94.5,9.63,9.63,0,0,0-2.7,1.48,9.1,9.1,0,0,0-2.12,2.37,7.16,7.16,0,0,0-1,3.17,15.66,15.66,0,0,0,1.12,7.32,73.8,73.8,0,0,0,3.32,7.27q1.86,3.6,3.32,7.1a14.34,14.34,0,0,1,1.12,6.9c-.33,2.76-1.14,4.76-2.41,6A5.86,5.86,0,0,1,309.34,52a6.28,6.28,0,0,1-3.28-1,7.65,7.65,0,0,1-2.65-2.71,9.57,9.57,0,0,1-1.25-4.23,14.19,14.19,0,0,1,.79-5.54,1,1,0,0,0,0-1,.85.85,0,0,0-.71-.42.8.8,0,0,0-.74.59,16,16,0,0,0-.88,7.57,11.33,11.33,0,0,0,2.29,5.41A10.79,10.79,0,0,0,307.31,54a14.31,14.31,0,0,0,5.52,1.1,15.13,15.13,0,0,0,4.56-.71,12.84,12.84,0,0,0,4-2.12,12.33,12.33,0,0,0,3-3.51,11.74,11.74,0,0,0,1.49-5,16.84,16.84,0,0,0-.54-6,25.7,25.7,0,0,0-2.2-5.41,52.56,52.56,0,0,0-3.11-5c-1.14-1.61-2.2-3.16-3.2-4.65a34.51,34.51,0,0,1-2.45-4.27,9.38,9.38,0,0,1-.95-4,4.16,4.16,0,0,1,4-4.31,3.1,3.1,0,0,1,2.58,1.57q1.08,1.56.25,5.2a.73.73,0,0,0,.12.8.85.85,0,0,0,.62.3.87.87,0,0,0,.83-.68A11.61,11.61,0,0,0,322.08,13.16Z" />
        </g>
        <g id="Capa_3" data-name="Capa 3" class="md">
            <path class="cls-4" d="M104.71,1.31a29.12,29.12,0,0,0-8.95,1.33.19.19,0,0,0,0,.36,2.55,2.55,0,0,1,.68.36,2.52,2.52,0,0,1,.43.48,2,2,0,0,1,.27.55c.16.37.39.81.56,1.22s.16.48.31.85c.06.16.22.65.29.82a7.57,7.57,0,0,1,.44,2.14,49.15,49.15,0,0,1,0,7.23c-.17,2.82-.39,5.87-.66,9.13s-.42,6.33-.43,9.19a31.77,31.77,0,0,0,.75,7.48c.5,2.11,1.47,3.43,2.9,3.93a1.59,1.59,0,0,0,.56.1c.3,0,.46-.17.48-.4a.74.74,0,0,0-.29-.64,7,7,0,0,1-2-3.67,22.32,22.32,0,0,1-.56-5.5q0-3.1.35-6.63t.68-7.14q.36-3.62.52-7a33.16,33.16,0,0,0-.2-6.1,11.58,11.58,0,0,0-1.44-4.5c-.08-.13-.16-.26-.25-.38a29.5,29.5,0,0,1-3.93,54,.17.17,0,0,0,0,.32,29.52,29.52,0,1,0,9.46-57.56Z" />
            <path class="cls-5" d="M139.92,24.86c.08-.4.43-.7,1-.92a5.85,5.85,0,0,1,2-.33,4.83,4.83,0,0,1,2,.42,1.45,1.45,0,0,1,.92,1.42q0,3.09-.18,6.4a15.84,15.84,0,0,1,3.47-5.27,6.42,6.42,0,0,1,4.54-2h.44a2.67,2.67,0,0,1,.51.06,2.85,2.85,0,0,1,2.4,1.81,6.33,6.33,0,0,1,.12,3.32,13.52,13.52,0,0,1-1.49,3.82A14,14,0,0,1,153.2,37a6.62,6.62,0,0,1,2.49,3A17.67,17.67,0,0,1,157,44.25a36.58,36.58,0,0,1,.5,4.83c.06,1.64.08,3.13.06,4.48s0,2.47,0,3.37.1,1.39.3,1.43.49.32.41.62a.54.54,0,0,1-.59.44h-.12a4.16,4.16,0,0,1-2.7-2,14.54,14.54,0,0,1-1.66-3.88,34.3,34.3,0,0,1-.94-4.84q-.33-2.58-.57-4.86c-.16-1.52-.33-2.82-.53-3.91a3.21,3.21,0,0,0-.83-2,3.51,3.51,0,0,0-1.72-.47,5.4,5.4,0,0,0-1.6.26,8.42,8.42,0,0,0-1.66.75c-.32,3.75-.68,7.36-1.1,10.82s-.8,6.47-1.15,9a1.27,1.27,0,0,1-.81,1,4.17,4.17,0,0,1-1.63.29,7.15,7.15,0,0,1-1.3-.12,4.37,4.37,0,0,1-1.19-.38,2.77,2.77,0,0,1-.83-.62,1.23,1.23,0,0,1-.29-.77c.08-2.38.21-5,.38-8s.41-5.89.68-8.89.58-5.9.89-8.69S139.61,27,139.92,24.86Zm14,.95a1.08,1.08,0,0,0-.66-.18,3.81,3.81,0,0,0-1.89.71,9.73,9.73,0,0,0-2.29,2.14,16.93,16.93,0,0,0-2.16,3.58,21,21,0,0,0-1.54,5.07,15.87,15.87,0,0,0,4.21-2.9,22.34,22.34,0,0,0,3-3.5,10.32,10.32,0,0,0,1.51-3.11C154.33,26.69,154.27,26.08,153.92,25.81Z" />
            <path class="cls-5" d="M164.17,58.71c-.83-.31-1.43-1.29-1.81-2.93a28.45,28.45,0,0,1-.59-5.93,70.22,70.22,0,0,1,.36-7.44c.25-2.65.58-5.15,1-7.5s.84-4.41,1.31-6.17a9.29,9.29,0,0,1,1.36-3.35,3.65,3.65,0,0,1,1.69-1,8.81,8.81,0,0,1,2.34-.29,16.45,16.45,0,0,1,2.73.24c.95.15,1.89.34,2.82.56s1.79.43,2.58.65l2,.56q.66.18.54.69a.64.64,0,0,1-.71.5h-.18c-.48-.08-1-.2-1.6-.36s-1.19-.32-1.78-.5S175,26.1,174.49,26a7.15,7.15,0,0,0-1.48-.18c-.64,0-1,.16-1.19.47a8.66,8.66,0,0,0-.77,2.08,31.4,31.4,0,0,0-.65,3.2c-.2,1.22-.39,2.57-.57,4s-.32,2.95-.44,4.45c1.5-.28,3-.51,4.51-.69l4.5-.5c.4.08.6.29.62.62s-.16.55-.56.63l-4.59.56c-1.53.18-3.06.41-4.6.68q-.18,2.73-.27,5.31t0,4.65a33.52,33.52,0,0,0,.24,3.41c.12.89.3,1.41.54,1.57a1.72,1.72,0,0,0,1.06.24,7.57,7.57,0,0,0,2.11-.36,18.31,18.31,0,0,0,2.43-.89c.81-.35,1.57-.72,2.28-1.09s1.29-.7,1.72-1a.92.92,0,0,1,.36-.12.65.65,0,0,1,.65.45.56.56,0,0,1-.3.74,31,31,0,0,1-3.26,1.8,34.64,34.64,0,0,1-3.62,1.52,33.19,33.19,0,0,1-3.61,1.06,14.15,14.15,0,0,1-3.2.42A5.93,5.93,0,0,1,164.17,58.71Z" />
            <path class="cls-5" d="M186.29,57.76a1.39,1.39,0,0,1-.86.75,4,4,0,0,1-1.4.26,3,3,0,0,1-1.3-.26.77.77,0,0,1-.42-.92,14.71,14.71,0,0,0,.21-2.14c.06-1.1.17-2.46.33-4.06s.37-3.38.65-5.33.65-3.93,1.13-5.9a47.43,47.43,0,0,1,1.75-5.76,22.17,22.17,0,0,1,2.55-4.95A12.71,12.71,0,0,1,192.45,26a8.35,8.35,0,0,1,4.63-1.31h.5a2.67,2.67,0,0,1,.51.06A7.46,7.46,0,0,1,202,26.19a8.89,8.89,0,0,1,2.52,3.09,15.45,15.45,0,0,1,1.39,4.26,31.26,31.26,0,0,1,.51,5h1.06a.64.64,0,0,1,.48.72c0,.39-.18.59-.54.59h-1a58.93,58.93,0,0,1-.39,6.76c-.26,2.25-.52,4.27-.8,6.05s-.48,3.22-.62,4.32-.11,1.66.09,1.66c.47,0,.7.11.68.45a.49.49,0,0,1-.56.5,5.2,5.2,0,0,1-4.33-1.78,10,10,0,0,1-1.93-4.59,29.33,29.33,0,0,1-.36-6.32q.15-3.49.39-6.93c-1.78.08-3.51.21-5.19.38s-3.39.43-5.13.74q-.41,2.73-.68,5.46c-.18,1.82-.33,3.49-.47,5s-.27,2.83-.39,3.91A11.72,11.72,0,0,1,186.29,57.76Zm10-31.48a2.11,2.11,0,0,0-.6-.06,3.73,3.73,0,0,0-2.63,1.1,9.5,9.5,0,0,0-2,3,25.36,25.36,0,0,0-1.48,4.3c-.42,1.62-.76,3.32-1,5.1,1.7-.31,3.39-.54,5.07-.68s3.39-.25,5.13-.33q.18-2.43.27-4.59a23,23,0,0,0-.15-3.83,8.6,8.6,0,0,0-.8-2.72A2.28,2.28,0,0,0,196.25,26.28Z" />
            <path class="cls-5" d="M213.86,24.74c.07-.28.35-.47.83-.59a6.47,6.47,0,0,1,1.6-.18,7.28,7.28,0,0,1,2,.27c.63.17.95.44.95.8v8.24a25.36,25.36,0,0,1,.92-2.64,8.29,8.29,0,0,1,1.27-2.13,5.59,5.59,0,0,1,1.9-1.46,6.42,6.42,0,0,1,2.73-.53,6.49,6.49,0,0,1,3.32,1.18,7.76,7.76,0,0,1,2.25,2.76A15.92,15.92,0,0,1,233,34.61a35.73,35.73,0,0,1,.59,5.31A57.54,57.54,0,0,1,235,34.17a25.7,25.7,0,0,1,2-4.83,11,11,0,0,1,2.7-3.35,5.48,5.48,0,0,1,3.55-1.25,6.68,6.68,0,0,1,1.54.18,4.15,4.15,0,0,1,2.73,2,11.77,11.77,0,0,1,1.34,4,28.91,28.91,0,0,1,.29,5.33c-.06,2-.16,3.94-.29,6s-.28,4-.42,5.87-.2,3.6-.18,5.1a13.52,13.52,0,0,0,.45,3.64,1.82,1.82,0,0,0,1.54,1.52c.36,0,.53.21.53.53s-.17.49-.53.53h-.59a5.9,5.9,0,0,1-4.12-1.36,8.22,8.22,0,0,1-2.26-3.62,19.93,19.93,0,0,1-.89-5.15,58.64,58.64,0,0,1,0-5.93q.15-3,.42-6c.18-2,.3-3.73.35-5.31a19.56,19.56,0,0,0-.17-3.88c-.18-1-.59-1.57-1.22-1.69h-.3c-.87,0-1.73.72-2.57,2.16A26.76,26.76,0,0,0,236.5,35a100.85,100.85,0,0,0-2.1,9.9q-1,5.81-1.81,13.1c0,.2-.17.35-.5.45a4.62,4.62,0,0,1-1.28.14,8.64,8.64,0,0,1-1.39-.11,11.05,11.05,0,0,1-1.36-.3,4.48,4.48,0,0,1-1-.42c-.28-.15-.42-.31-.42-.47,0-1.11.07-2.58.21-4.42s.29-3.82.45-6,.29-4.29.41-6.49a55.3,55.3,0,0,0,0-6,20.69,20.69,0,0,0-.68-4.53c-.36-1.21-.91-1.89-1.66-2.05a2.07,2.07,0,0,0-.59-.06,3.23,3.23,0,0,0-2.82,2,17.9,17.9,0,0,0-1.75,5,54.55,54.55,0,0,0-1,6.7c-.22,2.45-.41,4.8-.59,7.06s-.36,4.28-.54,6.07a14.17,14.17,0,0,1-.74,3.83,1.59,1.59,0,0,1-1.15.68,9,9,0,0,1-2,.21,9.65,9.65,0,0,1-2.37-.27c-.71-.18-1.11-.42-1.19-.74a26.36,26.36,0,0,1,.06-2.88c.08-1.6.21-3.52.39-5.78s.38-4.69.62-7.32.48-5.13.74-7.5.51-4.48.74-6.31A25.91,25.91,0,0,1,213.86,24.74Z" />
            <path class="cls-5" d="M267.4,31.56a.62.62,0,0,1-.6.47.64.64,0,0,1-.44-.2.52.52,0,0,1-.09-.57c.39-1.7.33-2.91-.18-3.64a2.21,2.21,0,0,0-1.84-1.1,2.9,2.9,0,0,0-1.92.8,2.76,2.76,0,0,0-.92,2.22,6.36,6.36,0,0,0,.68,2.79,22.35,22.35,0,0,0,1.75,3c.71,1,1.47,2.14,2.28,3.26a36.8,36.8,0,0,1,2.22,3.5,17,17,0,0,1,1.57,3.8,11.59,11.59,0,0,1,.39,4.18,8,8,0,0,1-1.07,3.5A8.86,8.86,0,0,1,267.07,56a9.36,9.36,0,0,1-2.88,1.48,10.93,10.93,0,0,1-3.26.5,10.39,10.39,0,0,1-3.94-.77A7.66,7.66,0,0,1,253.82,55a7.85,7.85,0,0,1-1.63-3.8,11,11,0,0,1,.62-5.3.58.58,0,0,1,.53-.42.61.61,0,0,1,.51.3.69.69,0,0,1,0,.71,9.62,9.62,0,0,0-.57,3.88,6.79,6.79,0,0,0,.89,3,5.57,5.57,0,0,0,1.9,1.9,4.6,4.6,0,0,0,2.34.68,4.23,4.23,0,0,0,3-1.31,6.82,6.82,0,0,0,1.72-4.21,9.9,9.9,0,0,0-.8-4.83q-1.05-2.46-2.38-5a53.22,53.22,0,0,1-2.37-5.1,10.89,10.89,0,0,1-.8-5.13,5,5,0,0,1,.74-2.22A6.36,6.36,0,0,1,259,26.43a6.89,6.89,0,0,1,1.92-1,6.62,6.62,0,0,1,2.11-.35,5.4,5.4,0,0,1,2,.38,3.92,3.92,0,0,1,1.6,1.19,4.19,4.19,0,0,1,.86,2A8.17,8.17,0,0,1,267.4,31.56Z" />
            <path class="cls-6" d="M29.51,36.59a4.05,4.05,0,0,1-3.05-1.78,9.37,9.37,0,0,1-1.39-3.91,24.09,24.09,0,0,1-.15-5.31c.14-2,.36-4,.68-6s.68-4.07,1.1-6.05.8-3.75,1.15-5.33.63-2.9.8-3.94.19-1.65,0-1.81a.67.67,0,0,1-.2-.65c.06-.24.24-.36.56-.36a.84.84,0,0,1,.36.06A5.92,5.92,0,0,1,32.57,5.4a21.58,21.58,0,0,1,.8,6.55,54,54,0,0,1-.71,7.71c-.44,2.67-.85,5.14-1.25,7.41s-.7,4.16-.92,5.66-.11,2.32.33,2.44h.12c.35,0,.73-.32,1.12-1a14.74,14.74,0,0,0,1.19-2.55c.39-1.07.78-2.29,1.16-3.68s.72-2.84,1-4.39c.6-2.76,1.09-5,1.48-6.81a38.17,38.17,0,0,1,1.16-4.24,5.92,5.92,0,0,1,1.28-2.26,3.34,3.34,0,0,1,1.83-.86l.24,0,.24,0a3.37,3.37,0,0,1,2.73,1.72,20.43,20.43,0,0,1,2.16,4.27,51.84,51.84,0,0,1,1.75,5.58c.51,2,1,3.87,1.51,5.57a33.61,33.61,0,0,0,1.51,4.27c.52,1.14,1.07,1.72,1.66,1.72a2,2,0,0,0,.48-.12c.59-.32.84-1.18.74-2.58a38.79,38.79,0,0,0-.77-5c-.42-2-.89-4.06-1.43-6.31s-.95-4.38-1.27-6.38a23.8,23.8,0,0,1-.33-5.27c.1-1.53.59-2.52,1.46-3a.84.84,0,0,1,.35-.12.32.32,0,0,1,.36.24.53.53,0,0,1-.12.47,5,5,0,0,0-.89,2.73A16.71,16.71,0,0,0,51.81,11c.23,1.45.55,3,.95,4.6s.8,3.26,1.21,4.92.78,3.27,1.1,4.83a26.4,26.4,0,0,1,.53,4.27,8.61,8.61,0,0,1-.44,3.26,3.14,3.14,0,0,1-1.87,1.87,6.14,6.14,0,0,1-2,.36,4.85,4.85,0,0,1-3.64-1.69A15.13,15.13,0,0,1,45,29.18a39.25,39.25,0,0,1-1.93-5.52c-.53-2-1-3.8-1.36-5.48s-.71-3.06-1-4.15-.58-1.61-.86-1.57-.46.39-.68,1.06-.45,1.55-.68,2.61-.5,2.29-.77,3.65-.58,2.76-.89,4.18-.69,3.06-1.1,4.56a30.54,30.54,0,0,1-1.42,4.07,10,10,0,0,1-1.87,2.9,3.37,3.37,0,0,1-2.49,1.1Z" />
            <path class="cls-6" d="M56.91,35.4c-.36,0-.54-.18-.54-.56s.16-.56.48-.56l2,0q1.09,0,2.28,0c0-.56,0-1.55.15-3s.25-3.12.45-5,.41-4,.65-6.16.47-4.29.71-6.29.47-3.81.68-5.45.41-2.88.57-3.71l-4,.24A.48.48,0,0,1,60,4.63a.63.63,0,0,1-.15-.41A.89.89,0,0,1,60,3.77a.38.38,0,0,1,.35-.21c1-.07,2.14-.14,3.33-.2l3.52-.15,3.38-.09,2.94,0c.31,0,.48.19.5.56s-.13.57-.44.57H71.85c-.6,0-1.21,0-1.84.06,0,.75-.12,1.9-.24,3.46s-.26,3.32-.44,5.28-.37,4-.57,6.17-.38,4.21-.56,6.16-.35,3.72-.5,5.28l-.36,3.53q1.25-.06,2.28-.06c.69,0,1.28,0,1.75-.06.32,0,.49.19.51.56s-.13.57-.45.57l-6.58.14Q61,35.4,56.91,35.4Z" />
            <path class="cls-6" d="M80,2.14c.08-.2.39-.35,1-.47a8.92,8.92,0,0,1,1.89-.18,11.72,11.72,0,0,1,2.26.21c.71.14,1,.34,1,.62-.08,1-.2,2.5-.36,4.42s-.34,4-.53,6.25-.38,4.58-.54,7-.27,4.58-.35,6.58-.09,3.67,0,5A5.21,5.21,0,0,0,84.71,34a1.78,1.78,0,0,0,1.31.41,10,10,0,0,0,3.41-.77c1.36-.51,2.67-1,3.94-1.6a.35.35,0,0,1,.24-.06c.27,0,.44.16.5.48a.64.64,0,0,1-.27.71,21.73,21.73,0,0,1-2.34,1,29.73,29.73,0,0,1-3.14,1c-1.13.3-2.28.55-3.44.75a20.24,20.24,0,0,1-3.23.29,9,9,0,0,1-1.9-.18,2.43,2.43,0,0,1-1.3-.65,4.94,4.94,0,0,1-1.16-2.7A27.33,27.33,0,0,1,76.89,28c0-1.86,0-3.9.17-6.14s.38-4.5.66-6.81.61-4.59,1-6.82S79.53,4,80,2.14Z" />
        </g>
        <g id="Capa_4" data-name="Capa 4" class="sm">
            <path class="cls-7" d="M134.94,31.26a31,31,0,0,1-40.69,29.2.18.18,0,0,1,0-.35A31,31,0,0,0,98.37,3.39l.27.4a12.38,12.38,0,0,1,1.51,4.72,36.55,36.55,0,0,1,.21,6.41q-.18,3.54-.55,7.34t-.71,7.5q-.34,3.7-.37,7a23.55,23.55,0,0,0,.58,5.78,7.39,7.39,0,0,0,2.09,3.85.8.8,0,0,1,.3.67c0,.24-.19.38-.5.42a1.59,1.59,0,0,1-.6-.1c-1.49-.53-2.51-1.91-3-4.13a33.73,33.73,0,0,1-.79-7.85q0-4.51.45-9.65t.7-9.6a54,54,0,0,0,0-7.58,8.3,8.3,0,0,0-.46-2.26c-.07-.17-.24-.69-.31-.86C97,5,97,5,96.81,4.52s-.43-.89-.59-1.28a2.49,2.49,0,0,0-.28-.57,2.83,2.83,0,0,0-.45-.51,2.86,2.86,0,0,0-.72-.38.2.2,0,0,1,0-.38,31,31,0,0,1,40.16,29.86Z" />
        </g>
    </g>
</svg>
