<svg xmlns="http://www.w3.org/2000/svg" xmlns:xlink="http://www.w3.org/1999/xlink" width="614.866" height="113.514" viewBox="0 0 614.866 113.514">
  <defs>
    <linearGradient id="linear-gradient" y1="7.991" x2="1" y2="7.991" gradientUnits="objectBoundingBox">
      <stop offset="0" stop-color="#b5ce87"/>
      <stop offset="1" stop-color="#0f314d"/>
    </linearGradient>
  </defs>
  <path id="Trazado_11" data-name="Trazado 11" d="M341.88,257.21a56.659,56.659,0,0,1-74.47,53.43.333.333,0,0,1,0-.63,56.688,56.688,0,0,0,7.54-103.82c.17.24.33.48.49.74a22.377,22.377,0,0,1,2.77,8.64,65.687,65.687,0,0,1,.38,11.72q-.315,6.5-1,13.44t-1.3,13.72c-.42,4.52-.64,8.76-.68,12.75a42.89,42.89,0,0,0,1.07,10.57,13.583,13.583,0,0,0,3.81,7.04,1.466,1.466,0,0,1,.56,1.24c-.05.44-.35.7-.92.77a2.808,2.808,0,0,1-1.09-.19q-4.11-1.455-5.57-7.56a60.952,60.952,0,0,1-1.44-14.36q.015-8.25.82-17.67t1.28-17.56a94.6,94.6,0,0,0-.04-13.88,14.488,14.488,0,0,0-.83-4.12c-.13-.32-.44-1.26-.57-1.58-.28-.71-.25-.83-.58-1.62s-.78-1.64-1.08-2.35a4.864,4.864,0,0,0-.52-1.05,4.77,4.77,0,0,0-.83-.92,4.893,4.893,0,0,0-1.31-.7.369.369,0,0,1,.01-.7,56.66,56.66,0,0,1,73.5,54.65Zm-240.01,46.9a8.849,8.849,0,0,0,6.57-2.9,25.96,25.96,0,0,0,4.93-7.67,78.087,78.087,0,0,0,3.76-10.72q1.65-5.955,2.9-12.06,1.245-5.64,2.35-11.04t2.04-9.63c.63-2.82,1.23-5.11,1.8-6.89s1.17-2.71,1.8-2.82q1.095-.15,2.27,4.15t2.66,10.96q1.485,6.66,3.6,14.48a101.888,101.888,0,0,0,5.09,14.56,39.962,39.962,0,0,0,7.12,11.19,12.748,12.748,0,0,0,9.63,4.46,16.357,16.357,0,0,0,5.17-.94,8.209,8.209,0,0,0,4.93-4.93,22.515,22.515,0,0,0,1.18-8.61,68.851,68.851,0,0,0-1.41-11.27q-1.26-6.18-2.9-12.76t-3.21-12.99q-1.56-6.42-2.5-12.13a44.482,44.482,0,0,1-.63-10.25,13.076,13.076,0,0,1,2.35-7.2,1.428,1.428,0,0,0,.31-1.25.845.845,0,0,0-.94-.63,2.372,2.372,0,0,0-.94.31q-3.45,1.875-3.84,7.91a63.441,63.441,0,0,0,.86,13.93q1.245,7.905,3.37,16.83t3.76,16.67a100.206,100.206,0,0,1,2.04,13.31q.39,5.565-1.96,6.81a5.123,5.123,0,0,1-1.25.31q-2.355,0-4.38-4.54a86.542,86.542,0,0,1-3.99-11.27q-1.965-6.735-3.99-14.72a133.979,133.979,0,0,0-4.62-14.72,54.174,54.174,0,0,0-5.71-11.27q-3.135-4.545-7.2-4.54a2.719,2.719,0,0,0-.63.08,2.72,2.72,0,0,1-.63.08,8.765,8.765,0,0,0-4.85,2.27,15.494,15.494,0,0,0-3.37,5.95,96.847,96.847,0,0,0-3.05,11.19q-1.56,7.05-3.91,18-1.26,6.105-2.74,11.59t-3.05,9.71a37.537,37.537,0,0,1-3.13,6.73c-1.05,1.67-2.04,2.51-2.98,2.51h-.31q-1.725-.465-.86-6.42.855-5.94,2.43-14.95t3.29-19.57a141.188,141.188,0,0,0,1.88-20.35,57.007,57.007,0,0,0-2.11-17.3q-2.265-7.515-8.38-10.33a2.24,2.24,0,0,0-.94-.16c-.84,0-1.33.31-1.49.94a1.7,1.7,0,0,0,.55,1.72q.63.63-.08,4.77-.705,4.155-2.11,10.41T93.37,243.2q-1.65,7.83-2.9,15.97t-1.8,15.89a63.751,63.751,0,0,0,.39,14.01,24.882,24.882,0,0,0,3.68,10.33,10.71,10.71,0,0,0,8.06,4.7h1.07Zm92.21-3.36q10.17-.24,17.38-.39c.83,0,1.23-.5,1.17-1.49s-.5-1.49-1.33-1.49c-1.25.11-2.79.16-4.62.16s-3.83.05-6.03.15q.315-3.135.94-9.31t1.33-13.93q.705-7.755,1.49-16.28t1.49-16.28q.705-7.755,1.17-13.93t.63-9.16c1.67-.1,3.29-.15,4.85-.15h4.54c.83,0,1.23-.5,1.17-1.49s-.5-1.49-1.33-1.49q-3.45,0-7.75.08c-2.87.05-5.85.13-8.92.23s-6.18.24-9.32.39-6.05.34-8.77.55a1.009,1.009,0,0,0-.94.55,2.34,2.34,0,0,0-.31,1.18,1.638,1.638,0,0,0,.39,1.09,1.272,1.272,0,0,0,1.02.47l10.49-.63c-.42,2.19-.92,5.46-1.49,9.78s-1.17,9.13-1.8,14.4-1.25,10.8-1.88,16.59-1.2,11.22-1.72,16.28-.92,9.5-1.17,13.31-.39,6.44-.39,7.9q-3.135,0-6.03.08c-1.93.05-3.73.08-5.4.08-.84,0-1.25.5-1.25,1.49s.47,1.49,1.41,1.49Q183.9,300.98,194.08,300.75Zm36.63-71.55q-1.56,8.85-2.66,18.01t-1.72,18q-.63,8.85-.47,16.2a74.85,74.85,0,0,0,1.18,12.6c.68,3.5,1.69,5.87,3.05,7.12a6.64,6.64,0,0,0,3.44,1.72,24.247,24.247,0,0,0,5.01.47,51.469,51.469,0,0,0,8.53-.78q4.62-.78,9.08-1.96a77.161,77.161,0,0,0,8.3-2.66,56.192,56.192,0,0,0,6.18-2.74,1.676,1.676,0,0,0,.7-1.88c-.16-.83-.6-1.25-1.33-1.25a.956.956,0,0,0-.63.16q-5.01,2.19-10.41,4.23a26.576,26.576,0,0,1-9,2.04,4.646,4.646,0,0,1-3.44-1.1q-.945-1.1-1.17-6.5-.24-5.4.08-13.31t.94-17.38q.63-9.465,1.41-18.4t1.41-16.52q.63-7.59.94-11.66c.1-.73-.78-1.28-2.66-1.64a31.558,31.558,0,0,0-5.95-.55,24.247,24.247,0,0,0-5.01.47c-1.46.31-2.3.73-2.5,1.25C232.85,217.96,231.76,223.3,230.71,229.2Zm125.76,3.76q-1.26,11.04-2.35,22.94t-1.8,23.49q-.705,11.58-1.02,20.98a3.144,3.144,0,0,0,.78,2.04,6.613,6.613,0,0,0,2.19,1.64,11.619,11.619,0,0,0,3.13,1.02,19.162,19.162,0,0,0,3.45.31,10.759,10.759,0,0,0,4.3-.78,3.3,3.3,0,0,0,2.11-2.51q1.41-10.17,3.05-23.88t2.9-28.57a23.408,23.408,0,0,1,4.38-1.96,13.769,13.769,0,0,1,4.23-.7,9.092,9.092,0,0,1,4.54,1.25q1.41.945,2.19,5.25c.52,2.87.99,6.32,1.41,10.33s.91,8.3,1.49,12.84a90.958,90.958,0,0,0,2.5,12.76,38.033,38.033,0,0,0,4.38,10.26,11.02,11.02,0,0,0,7.12,5.24h.31a1.47,1.47,0,0,0,1.57-1.17c.21-.78-.16-1.33-1.1-1.64-.52-.1-.78-1.36-.78-3.76s.02-5.38.08-8.93,0-7.49-.16-11.82a94.3,94.3,0,0,0-1.33-12.76,47.536,47.536,0,0,0-3.44-11.43,17.58,17.58,0,0,0-6.58-7.83,37.256,37.256,0,0,0,6.65-8.77,35.438,35.438,0,0,0,3.91-10.1,16.442,16.442,0,0,0-.31-8.77q-1.335-3.84-6.34-4.78a7.191,7.191,0,0,0-1.33-.15h-1.17a16.954,16.954,0,0,0-11.98,5.17,41.813,41.813,0,0,0-9.16,13.93q.465-8.76.47-16.91a3.84,3.84,0,0,0-2.43-3.76,13,13,0,0,0-5.4-1.1,15.71,15.71,0,0,0-5.25.86c-1.62.57-2.53,1.38-2.74,2.43C358.14,219.16,357.3,225.6,356.47,232.96Zm39.92-12.06a27.611,27.611,0,0,1-3.99,8.22,58.678,58.678,0,0,1-7.9,9.24,41.365,41.365,0,0,1-11.12,7.67,55.447,55.447,0,0,1,4.07-13.39,45.3,45.3,0,0,1,5.71-9.47,26.073,26.073,0,0,1,6.03-5.64,10,10,0,0,1,5.01-1.88,2.833,2.833,0,0,1,1.72.47Q397.33,217.23,396.39,220.9Zm32.41,83.06a37.567,37.567,0,0,0,8.45-1.1,88.971,88.971,0,0,0,9.55-2.82,96.383,96.383,0,0,0,9.55-3.99,84.269,84.269,0,0,0,8.61-4.77,1.488,1.488,0,0,0,.78-1.96,1.715,1.715,0,0,0-1.72-1.17,2.552,2.552,0,0,0-.94.31q-1.725,1.1-4.54,2.58t-6.03,2.9a53.566,53.566,0,0,1-6.42,2.35,20.085,20.085,0,0,1-5.56.94,4.645,4.645,0,0,1-2.82-.63c-.63-.42-1.1-1.8-1.41-4.15s-.52-5.35-.63-9-.08-7.75.08-12.29.39-9.21.7-14.01q6.1-1.095,12.13-1.8t12.13-1.49c1.04-.21,1.54-.76,1.49-1.64s-.6-1.43-1.64-1.64q-5.955.63-11.9,1.33t-11.9,1.8q.465-5.94,1.17-11.74t1.49-10.65c.52-3.23,1.1-6.05,1.72-8.45a22.457,22.457,0,0,1,2.04-5.48c.42-.83,1.46-1.25,3.13-1.25a19.229,19.229,0,0,1,3.92.47c1.46.31,2.97.7,4.54,1.18s3.13.92,4.7,1.33,2.98.73,4.23.94h.47a1.689,1.689,0,0,0,1.88-1.33c.21-.88-.26-1.49-1.41-1.8-1.46-.42-3.24-.91-5.32-1.49s-4.36-1.15-6.81-1.72-4.93-1.07-7.44-1.49a43.567,43.567,0,0,0-7.2-.63,22.507,22.507,0,0,0-6.18.78,9.391,9.391,0,0,0-4.46,2.66q-1.725,1.875-3.6,8.84t-3.44,16.28q-1.575,9.315-2.58,19.8a187.642,187.642,0,0,0-.94,19.65,73.988,73.988,0,0,0,1.56,15.66q1.485,6.5,4.78,7.75A15.735,15.735,0,0,0,428.8,303.96Zm53.7-9.48q.465-4.305,1.02-10.33t1.25-13.23q.705-7.2,1.8-14.4,6.885-1.245,13.54-1.96t13.7-1.02q-.63,9.075-1.02,18.32a76.566,76.566,0,0,0,.94,16.68,26.41,26.41,0,0,0,5.09,12.13c2.51,3.13,6.31,4.7,11.43,4.7a1.3,1.3,0,0,0,1.49-1.33q.075-1.335-1.8-1.17-.78,0-.24-4.38t1.64-11.43q1.095-7.05,2.11-15.97a157.081,157.081,0,0,0,1.02-17.85h2.66c.94,0,1.41-.52,1.41-1.57a1.686,1.686,0,0,0-1.25-1.88h-2.82a83.985,83.985,0,0,0-1.33-13.23,41.217,41.217,0,0,0-3.68-11.27,23.722,23.722,0,0,0-6.65-8.14,19.68,19.68,0,0,0-10.26-3.84,7.308,7.308,0,0,0-1.33-.16h-1.33a22.007,22.007,0,0,0-12.21,3.44,33.9,33.9,0,0,0-9.32,9.16,58.009,58.009,0,0,0-6.73,13.07,130.364,130.364,0,0,0-4.62,15.19q-1.875,7.83-2.97,15.58t-1.72,14.09c-.42,4.23-.7,7.8-.86,10.73a39.416,39.416,0,0,1-.55,5.64,2.033,2.033,0,0,0,1.1,2.43,7.644,7.644,0,0,0,3.44.7,10.227,10.227,0,0,0,3.68-.7,3.6,3.6,0,0,0,2.27-1.96A29.693,29.693,0,0,0,482.5,294.48Zm29.82-73.81a22.355,22.355,0,0,1,2.11,7.2,55.361,55.361,0,0,1,.39,10.1q-.24,5.715-.7,12.13-6.885.315-13.54.86t-13.39,1.8q1.1-7.05,2.74-13.46a67.612,67.612,0,0,1,3.91-11.35,25.244,25.244,0,0,1,5.32-7.83,9.855,9.855,0,0,1,6.97-2.89,5.21,5.21,0,0,1,1.56.16A5.92,5.92,0,0,1,512.32,220.67Zm40.16,2.42q-.945,7.275-1.96,16.67t-1.96,19.81q-.945,10.41-1.64,19.33t-1.02,15.26a71.56,71.56,0,0,0-.16,7.59c.21.84,1.25,1.49,3.13,1.96a25.791,25.791,0,0,0,6.26.7,23.56,23.56,0,0,0,5.25-.55c1.62-.37,2.63-.97,3.05-1.8q1.245-2.97,1.96-10.1t1.41-16.05q.705-8.925,1.56-18.63a143.836,143.836,0,0,1,2.58-17.69,47.59,47.59,0,0,1,4.62-13.15q2.895-5.16,7.44-5.17a5.333,5.333,0,0,1,1.57.16q2.97.63,4.38,5.4a53.285,53.285,0,0,1,1.8,11.98,146.157,146.157,0,0,1-.08,15.89q-.465,8.685-1.09,17.14t-1.17,15.74q-.555,7.275-.55,11.66c0,.42.37.84,1.1,1.25a12.565,12.565,0,0,0,2.74,1.1,31.785,31.785,0,0,0,3.6.78,23.127,23.127,0,0,0,3.68.31,12.229,12.229,0,0,0,3.37-.39c.88-.26,1.33-.65,1.33-1.18q2.19-19.26,4.77-34.6a265.44,265.44,0,0,1,5.56-26.15q2.97-10.8,6.34-16.52t6.81-5.71h.78q2.5.465,3.21,4.46a49.789,49.789,0,0,1,.47,10.25c-.16,4.18-.47,8.84-.94,14.01s-.84,10.41-1.1,15.74-.26,10.54,0,15.65a51.852,51.852,0,0,0,2.35,13.62,21.6,21.6,0,0,0,5.95,9.55q3.99,3.6,10.88,3.6h1.57c.94-.11,1.41-.57,1.41-1.41s-.47-1.3-1.41-1.41q-2.97-.315-4.07-3.99a36.265,36.265,0,0,1-1.17-9.63q-.09-5.94.47-13.46.54-7.515,1.1-15.5t.78-15.74a75.366,75.366,0,0,0-.78-14.09,30.882,30.882,0,0,0-3.52-10.65,10.917,10.917,0,0,0-7.2-5.4,18.294,18.294,0,0,0-4.07-.47,14.514,14.514,0,0,0-9.39,3.29,29.214,29.214,0,0,0-7.12,8.85,66.142,66.142,0,0,0-5.24,12.76,152.6,152.6,0,0,0-3.76,15.19,91.453,91.453,0,0,0-1.57-14.01,42.6,42.6,0,0,0-3.6-10.96,20.252,20.252,0,0,0-5.95-7.28,17.024,17.024,0,0,0-8.77-3.13,16.687,16.687,0,0,0-7.2,1.41,14.469,14.469,0,0,0-5.01,3.84,21.585,21.585,0,0,0-3.37,5.64,66.538,66.538,0,0,0-2.43,6.97V214.07c0-.94-.84-1.64-2.5-2.11a19.537,19.537,0,0,0-5.32-.7,17.721,17.721,0,0,0-4.23.47c-1.25.31-1.98.84-2.19,1.57A64.155,64.155,0,0,0,552.48,223.09Zm143.48.47a11.272,11.272,0,0,0-2.27-5.32,10.468,10.468,0,0,0-4.23-3.13,13.958,13.958,0,0,0-5.32-1.02,16.954,16.954,0,0,0-5.56.94,17.935,17.935,0,0,0-5.09,2.74,16.729,16.729,0,0,0-3.99,4.38,13.038,13.038,0,0,0-1.96,5.87,28.781,28.781,0,0,0,2.11,13.54,141.918,141.918,0,0,0,6.26,13.46q3.525,6.66,6.26,13.15a25.9,25.9,0,0,1,2.11,12.76q-.945,7.68-4.54,11.12a11.135,11.135,0,0,1-7.83,3.45,12.023,12.023,0,0,1-6.18-1.8,14.307,14.307,0,0,1-5.01-5.01,17.648,17.648,0,0,1-2.35-7.83,25.742,25.742,0,0,1,1.49-10.25,1.836,1.836,0,0,0-.08-1.88,1.6,1.6,0,0,0-1.33-.78,1.517,1.517,0,0,0-1.41,1.1c-1.77,5.32-2.32,10-1.64,14.01a20.919,20.919,0,0,0,4.3,10.02,20.489,20.489,0,0,0,8.38,6.03,27.726,27.726,0,0,0,10.41,2.04,28.441,28.441,0,0,0,8.61-1.33,24.189,24.189,0,0,0,7.59-3.91,22.917,22.917,0,0,0,5.71-6.5,21.27,21.27,0,0,0,2.82-9.24,31.1,31.1,0,0,0-1.02-11.04,46.873,46.873,0,0,0-4.15-10.02,95.278,95.278,0,0,0-5.87-9.24c-2.14-2.98-4.15-5.84-6.03-8.61a60.615,60.615,0,0,1-4.62-7.91,16.916,16.916,0,0,1-1.8-7.36,7.376,7.376,0,0,1,2.43-5.87,7.657,7.657,0,0,1,5.09-2.11,5.857,5.857,0,0,1,4.85,2.9q2.04,2.895.47,9.63a1.345,1.345,0,0,0,.24,1.49,1.625,1.625,0,0,0,1.17.55,1.647,1.647,0,0,0,1.57-1.25A20.789,20.789,0,0,0,695.96,223.56Z" transform="translate(-88.465 -199.998)" fill="url(#linear-gradient)"/>
</svg>
